<mxfile host="app.diagrams.net" modified="2020-10-13T06:11:59.491Z" agent="5.0 (Windows NT 10.0; Win64; x64) AppleWebKit/537.36 (KHTML, like Gecko) Chrome/86.0.4240.75 Safari/537.36 Edg/86.0.622.38" etag="IMTcqCFbGqvEFN81aXu3" version="13.7.9" type="github">
  <diagram id="XD3ifqxyaAMneCMJh3V3" name="第 1 页">
    <mxGraphModel dx="868" dy="434" grid="1" gridSize="10" guides="1" tooltips="1" connect="1" arrows="1" fold="1" page="1" pageScale="1" pageWidth="827" pageHeight="1169" math="0" shadow="0">
      <root>
        <mxCell id="0" />
        <mxCell id="1" parent="0" />
        <mxCell id="78FzZmsZdNg-j2nuOC0y-1" value="" style="shape=image;verticalLabelPosition=bottom;labelBackgroundColor=#ffffff;verticalAlign=top;aspect=fixed;imageAspect=0;image=data:image/svg+xml,PHN2ZyB4bWxucz0iaHR0cDovL3d3dy53My5vcmcvMjAwMC9zdmciIHhtbG5zOnhsaW5rPSJodHRwOi8vd3d3LnczLm9yZy8xOTk5L3hsaW5rIiB4bWxuczpzdmdqcz0iaHR0cDovL3N2Z2pzLmNvbS9zdmdqcyIgaWQ9IlN2Z2pzU3ZnMTAwNiIgd2lkdGg9IjEyNTIiIGhlaWdodD0iMTQ3MS41IiB2ZXJzaW9uPSIxLjEiIHZpZXdCb3g9IjAgMCAxMjUyIDE0NzEuNSI+PGRlZnMgaWQ9IlN2Z2pzRGVmczEwMDciPjxtYXJrZXIgaWQ9IlN2Z2pzTWFya2VyMTA2MiIgbWFya2VyV2lkdGg9IjE2IiBtYXJrZXJIZWlnaHQ9IjEyIiByZWZYPSIxNiIgcmVmWT0iNiIgdmlld0JveD0iMCAwIDE2IDEyIiBvcmllbnQ9ImF1dG8iIG1hcmtlclVuaXRzPSJ1c2VyU3BhY2VPblVzZSIgc3Ryb2tlLWRhc2hhcnJheT0iMCwwIj48cGF0aCBpZD0iU3ZnanNQYXRoMTA2MyIgZD0iTTAsMiBMMTQsNiBMMCwxMSBMMCwyIiBmaWxsPSIjMzIzMjMyIiBzdHJva2U9IiMzMjMyMzIiIHN0cm9rZS13aWR0aD0iMiIvPjwvbWFya2VyPjxtYXJrZXIgaWQ9IlN2Z2pzTWFya2VyMTA2NiIgbWFya2VyV2lkdGg9IjE2IiBtYXJrZXJIZWlnaHQ9IjEyIiByZWZYPSIxNiIgcmVmWT0iNiIgdmlld0JveD0iMCAwIDE2IDEyIiBvcmllbnQ9ImF1dG8iIG1hcmtlclVuaXRzPSJ1c2VyU3BhY2VPblVzZSIgc3Ryb2tlLWRhc2hhcnJheT0iMCwwIj48cGF0aCBpZD0iU3ZnanNQYXRoMTA2NyIgZD0iTTAsMiBMMTQsNiBMMCwxMSBMMCwyIiBmaWxsPSIjMzIzMjMyIiBzdHJva2U9IiMzMjMyMzIiIHN0cm9rZS13aWR0aD0iMiIvPjwvbWFya2VyPjxtYXJrZXIgaWQ9IlN2Z2pzTWFya2VyMTA4OCIgbWFya2VyV2lkdGg9IjE2IiBtYXJrZXJIZWlnaHQ9IjEyIiByZWZYPSIxNiIgcmVmWT0iNiIgdmlld0JveD0iMCAwIDE2IDEyIiBvcmllbnQ9ImF1dG8iIG1hcmtlclVuaXRzPSJ1c2VyU3BhY2VPblVzZSIgc3Ryb2tlLWRhc2hhcnJheT0iMCwwIj48cGF0aCBpZD0iU3ZnanNQYXRoMTA4OSIgZD0iTTAsMiBMMTQsNiBMMCwxMSBMMCwyIiBmaWxsPSIjMzIzMjMyIiBzdHJva2U9IiMzMjMyMzIiIHN0cm9rZS13aWR0aD0iMiIvPjwvbWFya2VyPjxtYXJrZXIgaWQ9IlN2Z2pzTWFya2VyMTA5MiIgbWFya2VyV2lkdGg9IjE2IiBtYXJrZXJIZWlnaHQ9IjEyIiByZWZYPSIxNiIgcmVmWT0iNiIgdmlld0JveD0iMCAwIDE2IDEyIiBvcmllbnQ9ImF1dG8iIG1hcmtlclVuaXRzPSJ1c2VyU3BhY2VPblVzZSIgc3Ryb2tlLWRhc2hhcnJheT0iMCwwIj48cGF0aCBpZD0iU3ZnanNQYXRoMTA5MyIgZD0iTTAsMiBMMTQsNiBMMCwxMSBMMCwyIiBmaWxsPSIjMzIzMjMyIiBzdHJva2U9IiMzMjMyMzIiIHN0cm9rZS13aWR0aD0iMiIvPjwvbWFya2VyPjxtYXJrZXIgaWQ9IlN2Z2pzTWFya2VyMTEzOCIgbWFya2VyV2lkdGg9IjE2IiBtYXJrZXJIZWlnaHQ9IjEyIiByZWZYPSIxNiIgcmVmWT0iNiIgdmlld0JveD0iMCAwIDE2IDEyIiBvcmllbnQ9ImF1dG8iIG1hcmtlclVuaXRzPSJ1c2VyU3BhY2VPblVzZSIgc3Ryb2tlLWRhc2hhcnJheT0iMCwwIj48cGF0aCBpZD0iU3ZnanNQYXRoMTEzOSIgZD0iTTAsMiBMMTQsNiBMMCwxMSBMMCwyIiBmaWxsPSIjMzIzMjMyIiBzdHJva2U9IiMzMjMyMzIiIHN0cm9rZS13aWR0aD0iMiIvPjwvbWFya2VyPjxtYXJrZXIgaWQ9IlN2Z2pzTWFya2VyMTE2NiIgbWFya2VyV2lkdGg9IjE2IiBtYXJrZXJIZWlnaHQ9IjEyIiByZWZYPSIxNiIgcmVmWT0iNiIgdmlld0JveD0iMCAwIDE2IDEyIiBvcmllbnQ9ImF1dG8iIG1hcmtlclVuaXRzPSJ1c2VyU3BhY2VPblVzZSIgc3Ryb2tlLWRhc2hhcnJheT0iMCwwIj48cGF0aCBpZD0iU3ZnanNQYXRoMTE2NyIgZD0iTTAsMiBMMTQsNiBMMCwxMSBMMCwyIiBmaWxsPSIjMzIzMjMyIiBzdHJva2U9IiMzMjMyMzIiIHN0cm9rZS13aWR0aD0iMiIvPjwvbWFya2VyPjxtYXJrZXIgaWQ9IlN2Z2pzTWFya2VyMTE3MCIgbWFya2VyV2lkdGg9IjE2IiBtYXJrZXJIZWlnaHQ9IjEyIiByZWZYPSIxNiIgcmVmWT0iNiIgdmlld0JveD0iMCAwIDE2IDEyIiBvcmllbnQ9ImF1dG8iIG1hcmtlclVuaXRzPSJ1c2VyU3BhY2VPblVzZSIgc3Ryb2tlLWRhc2hhcnJheT0iMCwwIj48cGF0aCBpZD0iU3ZnanNQYXRoMTE3MSIgZD0iTTAsMiBMMTQsNiBMMCwxMSBMMCwyIiBmaWxsPSIjMzIzMjMyIiBzdHJva2U9IiMzMjMyMzIiIHN0cm9rZS13aWR0aD0iMiIvPjwvbWFya2VyPjxtYXJrZXIgaWQ9IlN2Z2pzTWFya2VyMTE3OCIgbWFya2VyV2lkdGg9IjE2IiBtYXJrZXJIZWlnaHQ9IjEyIiByZWZYPSIxNiIgcmVmWT0iNiIgdmlld0JveD0iMCAwIDE2IDEyIiBvcmllbnQ9ImF1dG8iIG1hcmtlclVuaXRzPSJ1c2VyU3BhY2VPblVzZSIgc3Ryb2tlLWRhc2hhcnJheT0iMCwwIj48cGF0aCBpZD0iU3ZnanNQYXRoMTE3OSIgZD0iTTAsMiBMMTQsNiBMMCwxMSBMMCwyIiBmaWxsPSIjMzIzMjMyIiBzdHJva2U9IiMzMjMyMzIiIHN0cm9rZS13aWR0aD0iMiIvPjwvbWFya2VyPjxtYXJrZXIgaWQ9IlN2Z2pzTWFya2VyMTI0NCIgbWFya2VyV2lkdGg9IjE2IiBtYXJrZXJIZWlnaHQ9IjEyIiByZWZYPSIxNiIgcmVmWT0iNiIgdmlld0JveD0iMCAwIDE2IDEyIiBvcmllbnQ9ImF1dG8iIG1hcmtlclVuaXRzPSJ1c2VyU3BhY2VPblVzZSIgc3Ryb2tlLWRhc2hhcnJheT0iMCwwIj48cGF0aCBpZD0iU3ZnanNQYXRoMTI0NSIgZD0iTTAsMiBMMTQsNiBMMCwxMSBMMCwyIiBmaWxsPSIjMzIzMjMyIiBzdHJva2U9IiMzMjMyMzIiIHN0cm9rZS13aWR0aD0iMiIvPjwvbWFya2VyPjxtYXJrZXIgaWQ9IlN2Z2pzTWFya2VyMTI0OCIgbWFya2VyV2lkdGg9IjE2IiBtYXJrZXJIZWlnaHQ9IjEyIiByZWZYPSIxNiIgcmVmWT0iNiIgdmlld0JveD0iMCAwIDE2IDEyIiBvcmllbnQ9ImF1dG8iIG1hcmtlclVuaXRzPSJ1c2VyU3BhY2VPblVzZSIgc3Ryb2tlLWRhc2hhcnJheT0iMCwwIj48cGF0aCBpZD0iU3ZnanNQYXRoMTI0OSIgZD0iTTAsMiBMMTQsNiBMMCwxMSBMMCwyIiBmaWxsPSIjMzIzMjMyIiBzdHJva2U9IiMzMjMyMzIiIHN0cm9rZS13aWR0aD0iMiIvPjwvbWFya2VyPjxtYXJrZXIgaWQ9IlN2Z2pzTWFya2VyMTI4MiIgbWFya2VyV2lkdGg9IjE2IiBtYXJrZXJIZWlnaHQ9IjEyIiByZWZYPSIxNiIgcmVmWT0iNiIgdmlld0JveD0iMCAwIDE2IDEyIiBvcmllbnQ9ImF1dG8iIG1hcmtlclVuaXRzPSJ1c2VyU3BhY2VPblVzZSIgc3Ryb2tlLWRhc2hhcnJheT0iMCwwIj48cGF0aCBpZD0iU3ZnanNQYXRoMTI4MyIgZD0iTTAsMiBMMTQsNiBMMCwxMSBMMCwyIiBmaWxsPSIjMzIzMjMyIiBzdHJva2U9IiMzMjMyMzIiIHN0cm9rZS13aWR0aD0iMiIvPjwvbWFya2VyPjxtYXJrZXIgaWQ9IlN2Z2pzTWFya2VyMTMwMiIgbWFya2VyV2lkdGg9IjE2IiBtYXJrZXJIZWlnaHQ9IjEyIiByZWZYPSIxNiIgcmVmWT0iNiIgdmlld0JveD0iMCAwIDE2IDEyIiBvcmllbnQ9ImF1dG8iIG1hcmtlclVuaXRzPSJ1c2VyU3BhY2VPblVzZSIgc3Ryb2tlLWRhc2hhcnJheT0iMCwwIj48cGF0aCBpZD0iU3ZnanNQYXRoMTMwMyIgZD0iTTAsMiBMMTQsNiBMMCwxMSBMMCwyIiBmaWxsPSIjMzIzMjMyIiBzdHJva2U9IiMzMjMyMzIiIHN0cm9rZS13aWR0aD0iMiIvPjwvbWFya2VyPjxtYXJrZXIgaWQ9IlN2Z2pzTWFya2VyMTMxOCIgbWFya2VyV2lkdGg9IjE2IiBtYXJrZXJIZWlnaHQ9IjEyIiByZWZYPSIxNiIgcmVmWT0iNiIgdmlld0JveD0iMCAwIDE2IDEyIiBvcmllbnQ9ImF1dG8iIG1hcmtlclVuaXRzPSJ1c2VyU3BhY2VPblVzZSIgc3Ryb2tlLWRhc2hhcnJheT0iMCwwIj48cGF0aCBpZD0iU3ZnanNQYXRoMTMxOSIgZD0iTTAsMiBMMTQsNiBMMCwxMSBMMCwyIiBmaWxsPSIjMzIzMjMyIiBzdHJva2U9IiMzMjMyMzIiIHN0cm9rZS13aWR0aD0iMiIvPjwvbWFya2VyPjxtYXJrZXIgaWQ9IlN2Z2pzTWFya2VyMTMyMiIgbWFya2VyV2lkdGg9IjE2IiBtYXJrZXJIZWlnaHQ9IjEyIiByZWZYPSIxNiIgcmVmWT0iNiIgdmlld0JveD0iMCAwIDE2IDEyIiBvcmllbnQ9ImF1dG8iIG1hcmtlclVuaXRzPSJ1c2VyU3BhY2VPblVzZSIgc3Ryb2tlLWRhc2hhcnJheT0iMCwwIj48cGF0aCBpZD0iU3ZnanNQYXRoMTMyMyIgZD0iTTAsMiBMMTQsNiBMMCwxMSBMMCwyIiBmaWxsPSIjMzIzMjMyIiBzdHJva2U9IiMzMjMyMzIiIHN0cm9rZS13aWR0aD0iMiIvPjwvbWFya2VyPjxtYXJrZXIgaWQ9IlN2Z2pzTWFya2VyMTQwMiIgbWFya2VyV2lkdGg9IjE2IiBtYXJrZXJIZWlnaHQ9IjEyIiByZWZYPSIxNiIgcmVmWT0iNiIgdmlld0JveD0iMCAwIDE2IDEyIiBvcmllbnQ9ImF1dG8iIG1hcmtlclVuaXRzPSJ1c2VyU3BhY2VPblVzZSIgc3Ryb2tlLWRhc2hhcnJheT0iMCwwIj48cGF0aCBpZD0iU3ZnanNQYXRoMTQwMyIgZD0iTTAsMiBMMTQsNiBMMCwxMSBMMCwyIiBmaWxsPSIjMzIzMjMyIiBzdHJva2U9IiMzMjMyMzIiIHN0cm9rZS13aWR0aD0iMiIvPjwvbWFya2VyPjwvZGVmcz48ZyBpZD0iU3ZnanNHMTAwOCIgdHJhbnNmb3JtPSJ0cmFuc2xhdGUoMjUyLDM1LjAwMDAwMDAwMDAwMDA2KSI+PHBhdGggaWQ9IlN2Z2pzUGF0aDEwMDkiIGQ9Ik0gMCA0USAwIDAgNCAwTCAyMjYgMFEgMjMwIDAgMjMwIDRMIDIzMCAxMjJRIDIzMCAxMjYgMjI2IDEyNkwgNCAxMjZRIDAgMTI2IDAgMTIyWiIgc3Ryb2tlPSJyZ2JhKDUwLDUwLDUwLDEpIiBzdHJva2Utd2lkdGg9IjIiIGZpbGwtb3BhY2l0eT0iMSIgZmlsbD0iIzgwZmYwMCIvPjxwYXRoIGlkPSJTdmdqc1BhdGgxMDEwIiBkPSJNIDAgMzBMIDIzMCAzMCIgc3Ryb2tlPSJyZ2JhKDUwLDUwLDUwLDEpIiBzdHJva2Utd2lkdGg9IjIiIGZpbGw9Im5vbmUiLz48cGF0aCBpZD0iU3ZnanNQYXRoMTAxMSIgZD0iTSAwIDBMIDIzMCAwTCAyMzAgMTI2TCAwIDEyNloiIHN0cm9rZT0ibm9uZSIgZmlsbD0ibm9uZSIvPjxnIGlkPSJTdmdqc0cxMDEyIj48dGV4dCBpZD0iU3ZnanNUZXh0MTAxMyIgZm9udC1mYW1pbHk9IkFyaWFsIiB0ZXh0LWFuY2hvcj0ibWlkZGxlIiBmb250LXNpemU9IjEzcHgiIHdpZHRoPSIyMTBweCIgZmlsbD0iIzMyMzIzMiIgZm9udC13ZWlnaHQ9IjcwMCIgYWxpZ249Im1pZGRsZSIgYW5jaG9yPSJtaWRkbGUiIGZhbWlseT0iQXJpYWwiIHNpemU9IjEzcHgiIHdlaWdodD0iNzAwIiBmb250LXN0eWxlPSIiIG9wYWNpdHk9IjEiIHk9IjUuMDUiIHRyYW5zZm9ybT0icm90YXRlKDApIj48dHNwYW4gaWQ9IlN2Z2pzVHNwYW4xMDE0IiBkeT0iMTYiIHg9IjExNSI+PHRzcGFuIGlkPSJTdmdqc1RzcGFuMTAxNSIgc3R5bGU9InRleHQtZGVjb3JhdGlvbjo7Ij7ov4fnqIvmlbDmja7vvIjnrKzkuInmlrnlubPlj7Dmj5DkuqTvvIk8L3RzcGFuPjwvdHNwYW4+PC90ZXh0PjwvZz48ZyBpZD0iU3ZnanNHMTAxNiI+PHRleHQgaWQ9IlN2Z2pzVGV4dDEwMTciIGZvbnQtZmFtaWx5PSJBcmlhbCIgdGV4dC1hbmNob3I9InN0YXJ0IiBmb250LXNpemU9IjEzcHgiIHdpZHRoPSIyMTBweCIgZmlsbD0iIzMyMzIzMiIgZm9udC13ZWlnaHQ9IjQwMCIgYWxpZ249Im1pZGRsZSIgYW5jaG9yPSJzdGFydCIgZmFtaWx5PSJBcmlhbCIgc2l6ZT0iMTNweCIgd2VpZ2h0PSI0MDAiIGZvbnQtc3R5bGU9IiIgb3BhY2l0eT0iMSIgeT0iMjguMDUiIHRyYW5zZm9ybT0icm90YXRlKDApIj48dHNwYW4gaWQ9IlN2Z2pzVHNwYW4xMDE4IiBkeT0iMTYiIHg9IjEwIj48dHNwYW4gaWQ9IlN2Z2pzVHNwYW4xMDE5IiBzdHlsZT0idGV4dC1kZWNvcmF0aW9uOjsiPlRva2VuS2V577yI56Wo5o2u77yJPC90c3Bhbj48L3RzcGFuPjx0c3BhbiBpZD0iU3ZnanNUc3BhbjEwMjAiIGR5PSIxNiIgeD0iMTAiPjx0c3BhbiBpZD0iU3ZnanNUc3BhbjEwMjEiIHN0eWxlPSJ0ZXh0LWRlY29yYXRpb246OyI+LURhdGFz77yI5pWw5o2u77yJPC90c3Bhbj48L3RzcGFuPjx0c3BhbiBpZD0iU3ZnanNUc3BhbjEwMjIiIGR5PSIxNiIgeD0iMTAiPjx0c3BhbiBpZD0iU3ZnanNUc3BhbjEwMjMiIHN0eWxlPSJ0ZXh0LWRlY29yYXRpb246OyI+wqAgK1Bob25lTnVt77yI5omL5py65Y+356CB77yJPC90c3Bhbj48L3RzcGFuPjx0c3BhbiBpZD0iU3ZnanNUc3BhbjEwMjQiIGR5PSIxNiIgeD0iMTAiPjx0c3BhbiBpZD0iU3ZnanNUc3BhbjEwMjUiIHN0eWxlPSJ0ZXh0LWRlY29yYXRpb246OyI+wqAgK0l0ZW3vvIjov4fnqIvmlbDmja7pobnvvIk8L3RzcGFuPjwvdHNwYW4+PHRzcGFuIGlkPSJTdmdqc1RzcGFuMTAyNiIgZHk9IjE2IiB4PSIxMCI+PHRzcGFuIGlkPSJTdmdqc1RzcGFuMTAyNyIgc3R5bGU9InRleHQtZGVjb3JhdGlvbjo7Ij5VcGRhdGXvvIjotYTmupDmm7TmlrDml7bpl7TvvIk8L3RzcGFuPjwvdHNwYW4+PHRzcGFuIGlkPSJTdmdqc1RzcGFuMTAyOCIgZHk9IjE2IiB4PSIxMCI+PHRzcGFuIGlkPSJTdmdqc1RzcGFuMTAyOSIgc3R5bGU9InRleHQtZGVjb3JhdGlvbjo7Ij5SZW1hcmvvvIjlpIfms6jvvIk8L3RzcGFuPjwvdHNwYW4+PC90ZXh0PjwvZz48L2c+PGcgaWQ9IlN2Z2pzRzEwMzAiIHRyYW5zZm9ybT0idHJhbnNsYXRlKDYzMi45OTk5OTk5OTk5OTk5LDI1LjAwMDAwMDAwMDAwMDA1NykiPjxwYXRoIGlkPSJTdmdqc1BhdGgxMDMxIiBkPSJNIDAgMEwgMTc3IDBMIDE5MyAxNkwgMTkzIDE3MkwgMCAxNzJMIDAgMFoiIHN0cm9rZT0ibm9uZSIgZmlsbC1vcGFjaXR5PSIxIiBmaWxsPSIjZmZmZmFhIi8+PHBhdGggaWQ9IlN2Z2pzUGF0aDEwMzIiIGQ9Ik0gMTc3IDBMIDE3NyAxNkwgMTkzIDE2WiIgc3Ryb2tlPSJub25lIiBmaWxsLW9wYWNpdHk9IjEiIGZpbGw9IiNjZGNkY2QiLz48cGF0aCBpZD0iU3ZnanNQYXRoMTAzMyIgZD0iTSAwIDBMIDE3NyAwTCAxOTMgMTZMIDE5MyAxNzJMIDAgMTcyTCAwIDBaIiBzdHJva2U9Im5vbmUiIGZpbGw9Im5vbmUiLz48ZyBpZD0iU3ZnanNHMTAzNCI+PHRleHQgaWQ9IlN2Z2pzVGV4dDEwMzUiIGZvbnQtZmFtaWx5PSJBcmlhbCIgdGV4dC1hbmNob3I9InN0YXJ0IiBmb250LXNpemU9IjEzcHgiIHdpZHRoPSIxNzNweCIgZmlsbD0iIzMyMzIzMiIgZm9udC13ZWlnaHQ9IjQwMCIgYWxpZ249Im1pZGRsZSIgYW5jaG9yPSJzdGFydCIgZmFtaWx5PSJBcmlhbCIgc2l6ZT0iMTNweCIgd2VpZ2h0PSI0MDAiIGZvbnQtc3R5bGU9IiIgb3BhY2l0eT0iMSIgeT0iMjAuMDUiIHRyYW5zZm9ybT0icm90YXRlKDApIj48dHNwYW4gaWQ9IlN2Z2pzVHNwYW4xMDM2IiBkeT0iMTYiIHg9IjEwIj48dHNwYW4gaWQ9IlN2Z2pzVHNwYW4xMDM3IiBzdHlsZT0idGV4dC1kZWNvcmF0aW9uOjsiPkl0ZW3vvIjov4fnqIvmlbDmja7pobnvvIznsbvlnovvvJrlrZc8L3RzcGFuPjwvdHNwYW4+PHRzcGFuIGlkPSJTdmdqc1RzcGFuMTAzOCIgZHk9IjE2IiB4PSIxMCI+PHRzcGFuIGlkPSJTdmdqc1RzcGFuMTAzOSIgc3R5bGU9InRleHQtZGVjb3JhdGlvbjo7Ij7lhbjvvInkuLpLZXkvVmFsdWXmlrnlvI/vvIxLZXnvvJo8L3RzcGFuPjwvdHNwYW4+PHRzcGFuIGlkPSJTdmdqc1RzcGFuMTA0MCIgZHk9IjE2IiB4PSIxMCI+PHRzcGFuIGlkPSJTdmdqc1RzcGFuMTA0MSIgc3R5bGU9InRleHQtZGVjb3JhdGlvbjo7Ij7nu5/orqHpobnnvJbnoIEsVmFsdWU657uf6K6h5YC877yMPC90c3Bhbj48L3RzcGFuPjx0c3BhbiBpZD0iU3ZnanNUc3BhbjEwNDIiIGR5PSIxNiIgeD0iMTAiPjx0c3BhbiBpZD0iU3ZnanNUc3BhbjEwNDMiIHN0eWxlPSJ0ZXh0LWRlY29yYXRpb246OyI+5aaC77yaeyAiMDEiOiIxOCIsIjAyIjoiMjIiIH08L3RzcGFuPjwvdHNwYW4+PHRzcGFuIGlkPSJTdmdqc1RzcGFuMTA0NCIgZHk9IjE2IiB4PSIxMCI+PHRzcGFuIGlkPSJTdmdqc1RzcGFuMTA0NSIgc3R5bGU9InRleHQtZGVjb3JhdGlvbjo7Ij7nu5/orqHpobnnvJbnoIHpgJrov4fvvIjlm5vvvInojrflj5bog708L3RzcGFuPjwvdHNwYW4+PHRzcGFuIGlkPSJTdmdqc1RzcGFuMTA0NiIgZHk9IjE2IiB4PSIxMCI+PHRzcGFuIGlkPSJTdmdqc1RzcGFuMTA0NyIgc3R5bGU9InRleHQtZGVjb3JhdGlvbjo7Ij7lipvngrnnu5/orqHpobnlrZflhbjmjqXlj6M8L3RzcGFuPjwvdHNwYW4+PHRzcGFuIGlkPSJTdmdqc1RzcGFuMTA0OCIgZHk9IjE2IiB4PSIxMCI+PHRzcGFuIGlkPSJTdmdqc1RzcGFuMTA0OSIgc3R5bGU9InRleHQtZGVjb3JhdGlvbjo7Ij7lpoLvvJp7ICIwMSI6IuaVmeahiOWItuS9nCIsIjAyIjoi6K++PC90c3Bhbj48L3RzcGFuPjx0c3BhbiBpZD0iU3ZnanNUc3BhbjEwNTAiIGR5PSIxNiIgeD0iMTAiPjx0c3BhbiBpZD0iU3ZnanNUc3BhbjEwNTEiIHN0eWxlPSJ0ZXh0LWRlY29yYXRpb246OyI+5Lu25Yi25L2cIiB9PC90c3Bhbj48L3RzcGFuPjwvdGV4dD48L2c+PC9nPjxnIGlkPSJTdmdqc0cxMDUyIiB0cmFuc2Zvcm09InRyYW5zbGF0ZSgzMTIuOTk5OTk5OTk5OTk5OSwyMTgpIj48cGF0aCBpZD0iU3ZnanNQYXRoMTA1MyIgZD0iTSAwIDE4USAwIDAgMTggMEwgODIgMFEgMTAwIDAgMTAwIDE4TCAxMDAgNTJRIDEwMCA3MCA4MiA3MEwgMTggNzBRIDAgNzAgMCA1MkwgMCAxOFoiIHN0cm9rZT0icmdiYSg1MCw1MCw1MCwxKSIgc3Ryb2tlLXdpZHRoPSIyIiBmaWxsLW9wYWNpdHk9IjEiIGZpbGw9IiM2ZWQ0NjQiLz48ZyBpZD0iU3ZnanNHMTA1NCI+PHRleHQgaWQ9IlN2Z2pzVGV4dDEwNTUiIGZvbnQtZmFtaWx5PSJBcmlhbCIgdGV4dC1hbmNob3I9Im1pZGRsZSIgZm9udC1zaXplPSIxM3B4IiB3aWR0aD0iODBweCIgZmlsbD0iIzMyMzIzMiIgZm9udC13ZWlnaHQ9IjQwMCIgYWxpZ249Im1pZGRsZSIgYW5jaG9yPSJtaWRkbGUiIGZhbWlseT0iQXJpYWwiIHNpemU9IjEzcHgiIHdlaWdodD0iNDAwIiBmb250LXN0eWxlPSIiIG9wYWNpdHk9IjEiIHk9IjE3LjA1IiB0cmFuc2Zvcm09InJvdGF0ZSgwKSI+PHRzcGFuIGlkPSJTdmdqc1RzcGFuMTA1NiIgZHk9IjE2IiB4PSI1MCI+PHRzcGFuIGlkPSJTdmdqc1RzcGFuMTA1NyIgc3R5bGU9InRleHQtZGVjb3JhdGlvbjo7Ij7mjqXmlLbov4fnqIvmlbDmja48L3RzcGFuPjwvdHNwYW4+PHRzcGFuIGlkPSJTdmdqc1RzcGFuMTA1OCIgZHk9IjE2IiB4PSI1MCI+PHRzcGFuIGlkPSJTdmdqc1RzcGFuMTA1OSIgc3R5bGU9InRleHQtZGVjb3JhdGlvbjo7Ij7vvIhqc29u77yJPC90c3Bhbj48L3RzcGFuPjwvdGV4dD48L2c+PC9nPjxnIGlkPSJTdmdqc0cxMDYwIj48cGF0aCBpZD0iU3ZnanNQYXRoMTA2MSIgZD0iTTM2Mi45OTk5OTk5OTk5OTk5IDI4OEwzNjIuOTk5OTk5OTk5OTk5OSAzMDlMMzYyLjk5OTk5OTk5OTk5OTkgMzA5TDM2Mi45OTk5OTk5OTk5OTk5IDMzMCIgc3Ryb2tlPSIjMzIzMjMyIiBzdHJva2Utd2lkdGg9IjIiIGZpbGw9Im5vbmUiIG1hcmtlci1lbmQ9InVybCgjU3ZnanNNYXJrZXIxMDYyKSIvPjwvZz48ZyBpZD0iU3ZnanNHMTA2NCI+PHBhdGggaWQ9IlN2Z2pzUGF0aDEwNjUiIGQ9Ik0zNjIuOTk5OTk5OTk5OTk5OSA1MTFMMzYyLjk5OTk5OTk5OTk5OTkgNTI5TDM2MS45OTk5OTk5OTk5OTk5IDUyOUwzNjEuOTk5OTk5OTk5OTk5OSA1NDciIHN0cm9rZT0iIzMyMzIzMiIgc3Ryb2tlLXdpZHRoPSIyIiBmaWxsPSJub25lIiBtYXJrZXItZW5kPSJ1cmwoI1N2Z2pzTWFya2VyMTA2NikiLz48cmVjdCBpZD0iU3ZnanNSZWN0MTA2OCIgd2lkdGg9IjI2IiBoZWlnaHQ9IjE2IiB4PSIzNDkuNDk5OTk5OTk5OTk5OSIgeT0iNTIxIiBmaWxsPSIjZmZmZmZmIi8+PHRleHQgaWQ9IlN2Z2pzVGV4dDEwNjkiIGZvbnQtZmFtaWx5PSJBcmlhbCIgdGV4dC1hbmNob3I9Im1pZGRsZSIgZm9udC1zaXplPSIxM3B4IiB3aWR0aD0iMjZweCIgZmlsbD0iIzMyMzIzMiIgZm9udC13ZWlnaHQ9IjQwMCIgYWxpZ249InRvcCIgYW5jaG9yPSJtaWRkbGUiIGZhbWlseT0iQXJpYWwiIHNpemU9IjEzcHgiIHdlaWdodD0iNDAwIiBmb250LXN0eWxlPSIiIG9wYWNpdHk9IjEiIHk9IjUxOS4wNSIgdHJhbnNmb3JtPSJyb3RhdGUoMCkiPjx0c3BhbiBpZD0iU3ZnanNUc3BhbjEwNzAiIGR5PSIxNiIgeD0iMzYyLjQ5OTk5OTk5OTk5OTkiPjx0c3BhbiBpZD0iU3ZnanNUc3BhbjEwNzEiIHN0eWxlPSJ0ZXh0LWRlY29yYXRpb246OyI+5oiQ5YqfPC90c3Bhbj48L3RzcGFuPjwvdGV4dD48L2c+PGcgaWQ9IlN2Z2pzRzEwNzIiIHRyYW5zZm9ybT0idHJhbnNsYXRlKDMxNy45OTk5OTk5OTk5OTk5LDQ0MSkiPjxwYXRoIGlkPSJTdmdqc1BhdGgxMDczIiBkPSJNIDAgMzVMIDQ1IDBMIDkwIDM1TCA0NSA3MEwgMCAzNVoiIHN0cm9rZT0icmdiYSg1MCw1MCw1MCwxKSIgc3Ryb2tlLXdpZHRoPSIyIiBmaWxsLW9wYWNpdHk9IjEiIGZpbGw9IiM2ZWQ0NjQiLz48ZyBpZD0iU3ZnanNHMTA3NCI+PHRleHQgaWQ9IlN2Z2pzVGV4dDEwNzUiIGZvbnQtZmFtaWx5PSJBcmlhbCIgdGV4dC1hbmNob3I9Im1pZGRsZSIgZm9udC1zaXplPSIxM3B4IiB3aWR0aD0iNzBweCIgZmlsbD0iIzMyMzIzMiIgZm9udC13ZWlnaHQ9IjQwMCIgYWxpZ249Im1pZGRsZSIgYW5jaG9yPSJtaWRkbGUiIGZhbWlseT0iQXJpYWwiIHNpemU9IjEzcHgiIHdlaWdodD0iNDAwIiBmb250LXN0eWxlPSIiIG9wYWNpdHk9IjEiIHk9IjE3LjA1IiB0cmFuc2Zvcm09InJvdGF0ZSgwKSI+PHRzcGFuIGlkPSJTdmdqc1RzcGFuMTA3NiIgZHk9IjE2IiB4PSI0NSI+PHRzcGFuIGlkPSJTdmdqc1RzcGFuMTA3NyIgc3R5bGU9InRleHQtZGVjb3JhdGlvbjo7Ij7pqozor4E8L3RzcGFuPjwvdHNwYW4+PHRzcGFuIGlkPSJTdmdqc1RzcGFuMTA3OCIgZHk9IjE2IiB4PSI0NSI+PHRzcGFuIGlkPSJTdmdqc1RzcGFuMTA3OSIgc3R5bGU9InRleHQtZGVjb3JhdGlvbjo7Ij5Ub2tlbktleTwvdHNwYW4+PC90c3Bhbj48L3RleHQ+PC9nPjwvZz48ZyBpZD0iU3ZnanNHMTA4MCIgdHJhbnNmb3JtPSJ0cmFuc2xhdGUoMzEyLjk5OTk5OTk5OTk5OTksMzMwKSI+PHBhdGggaWQ9IlN2Z2pzUGF0aDEwODEiIGQ9Ik0gMCAwTCAxMDAgMEwgMTAwIDcwTCAwIDcwWiIgc3Ryb2tlPSJyZ2JhKDUwLDUwLDUwLDEpIiBzdHJva2Utd2lkdGg9IjIiIGZpbGwtb3BhY2l0eT0iMSIgZmlsbD0iIzZlZDQ2NCIvPjxnIGlkPSJTdmdqc0cxMDgyIj48dGV4dCBpZD0iU3ZnanNUZXh0MTA4MyIgZm9udC1mYW1pbHk9IkFyaWFsIiB0ZXh0LWFuY2hvcj0ibWlkZGxlIiBmb250LXNpemU9IjEzcHgiIHdpZHRoPSI4MHB4IiBmaWxsPSIjMzIzMjMyIiBmb250LXdlaWdodD0iNDAwIiBhbGlnbj0ibWlkZGxlIiBhbmNob3I9Im1pZGRsZSIgZmFtaWx5PSJBcmlhbCIgc2l6ZT0iMTNweCIgd2VpZ2h0PSI0MDAiIGZvbnQtc3R5bGU9IiIgb3BhY2l0eT0iMSIgeT0iMjUuMDUiIHRyYW5zZm9ybT0icm90YXRlKDApIj48dHNwYW4gaWQ9IlN2Z2pzVHNwYW4xMDg0IiBkeT0iMTYiIHg9IjUwIj48dHNwYW4gaWQ9IlN2Z2pzVHNwYW4xMDg1IiBzdHlsZT0idGV4dC1kZWNvcmF0aW9uOjsiPuWIm+W7uuWvvOWFpeS7u+WKoTwvdHNwYW4+PC90c3Bhbj48L3RleHQ+PC9nPjwvZz48ZyBpZD0iU3ZnanNHMTA4NiI+PHBhdGggaWQ9IlN2Z2pzUGF0aDEwODciIGQ9Ik0zNjIuOTk5OTk5OTk5OTk5OSA0MDBMMzYyLjk5OTk5OTk5OTk5OTkgNDIwLjVMMzYyLjk5OTk5OTk5OTk5OTkgNDIwLjVMMzYyLjk5OTk5OTk5OTk5OTkgNDQxIiBzdHJva2U9IiMzMjMyMzIiIHN0cm9rZS13aWR0aD0iMiIgZmlsbD0ibm9uZSIgbWFya2VyLWVuZD0idXJsKCNTdmdqc01hcmtlcjEwODgpIi8+PC9nPjxnIGlkPSJTdmdqc0cxMDkwIj48cGF0aCBpZD0iU3ZnanNQYXRoMTA5MSIgZD0iTTQwNy45OTk5OTk5OTk5OTk5IDQ3Nkw0NTAuNDk5OTk5OTk5OTk5OSA0NzZMNDUwLjQ5OTk5OTk5OTk5OTkgNDc2TDQ5Mi45OTk5OTk5OTk5OTk5IDQ3NiIgc3Ryb2tlPSIjMzIzMjMyIiBzdHJva2Utd2lkdGg9IjIiIGZpbGw9Im5vbmUiIG1hcmtlci1lbmQ9InVybCgjU3ZnanNNYXJrZXIxMDkyKSIvPjxyZWN0IGlkPSJTdmdqc1JlY3QxMDk0IiB3aWR0aD0iMjYiIGhlaWdodD0iMTYiIHg9IjQzNy40OTk5OTk5OTk5OTk5IiB5PSI0NjgiIGZpbGw9IiNmZmZmZmYiLz48dGV4dCBpZD0iU3ZnanNUZXh0MTA5NSIgZm9udC1mYW1pbHk9IkFyaWFsIiB0ZXh0LWFuY2hvcj0ibWlkZGxlIiBmb250LXNpemU9IjEzcHgiIHdpZHRoPSIyNnB4IiBmaWxsPSIjMzIzMjMyIiBmb250LXdlaWdodD0iNDAwIiBhbGlnbj0idG9wIiBhbmNob3I9Im1pZGRsZSIgZmFtaWx5PSJBcmlhbCIgc2l6ZT0iMTNweCIgd2VpZ2h0PSI0MDAiIGZvbnQtc3R5bGU9IiIgb3BhY2l0eT0iMSIgeT0iNDY2LjA1IiB0cmFuc2Zvcm09InJvdGF0ZSgwKSI+PHRzcGFuIGlkPSJTdmdqc1RzcGFuMTA5NiIgZHk9IjE2IiB4PSI0NTAuNDk5OTk5OTk5OTk5OSI+PHRzcGFuIGlkPSJTdmdqc1RzcGFuMTA5NyIgc3R5bGU9InRleHQtZGVjb3JhdGlvbjo7Ij7lpLHotKU8L3RzcGFuPjwvdHNwYW4+PC90ZXh0PjwvZz48ZyBpZD0iU3ZnanNHMTA5OCIgdHJhbnNmb3JtPSJ0cmFuc2xhdGUoMzEyLjk5OTk5OTk5OTk5OTksNjU2KSI+PHBhdGggaWQ9IlN2Z2pzUGF0aDEwOTkiIGQ9Ik0gMCAwTCAxMDAgMEwgMTAwIDcwTCAwIDcwWiIgc3Ryb2tlPSJyZ2JhKDUwLDUwLDUwLDEpIiBzdHJva2Utd2lkdGg9IjIiIGZpbGwtb3BhY2l0eT0iMSIgZmlsbD0iIzZlZDQ2NCIvPjxnIGlkPSJTdmdqc0cxMTAwIj48dGV4dCBpZD0iU3ZnanNUZXh0MTEwMSIgZm9udC1mYW1pbHk9IkFyaWFsIiB0ZXh0LWFuY2hvcj0ibWlkZGxlIiBmb250LXNpemU9IjEzcHgiIHdpZHRoPSI4MHB4IiBmaWxsPSIjMzIzMjMyIiBmb250LXdlaWdodD0iNDAwIiBhbGlnbj0ibWlkZGxlIiBhbmNob3I9Im1pZGRsZSIgZmFtaWx5PSJBcmlhbCIgc2l6ZT0iMTNweCIgd2VpZ2h0PSI0MDAiIGZvbnQtc3R5bGU9IiIgb3BhY2l0eT0iMSIgeT0iMTcuMDUiIHRyYW5zZm9ybT0icm90YXRlKDApIj48dHNwYW4gaWQ9IlN2Z2pzVHNwYW4xMTAyIiBkeT0iMTYiIHg9IjUwIj48dHNwYW4gaWQ9IlN2Z2pzVHNwYW4xMTAzIiBzdHlsZT0idGV4dC1kZWNvcmF0aW9uOjsiPuS/neWtmOWOn+Wni+aVsOaNrjwvdHNwYW4+PC90c3Bhbj48dHNwYW4gaWQ9IlN2Z2pzVHNwYW4xMTA0IiBkeT0iMTYiIHg9IjUwIj48dHNwYW4gaWQ9IlN2Z2pzVHNwYW4xMTA1IiBzdHlsZT0idGV4dC1kZWNvcmF0aW9uOjsiPuaWh+S7tjwvdHNwYW4+PC90c3Bhbj48L3RleHQ+PC9nPjwvZz48ZyBpZD0iU3ZnanNHMTEwNiIgdHJhbnNmb3JtPSJ0cmFuc2xhdGUoNDkyLjk5OTk5OTk5OTk5OTksNDQxKSI+PHBhdGggaWQ9IlN2Z2pzUGF0aDExMDciIGQ9Ik0gMCAwTCAxMDAgMEwgMTAwIDcwTCAwIDcwWiIgc3Ryb2tlPSJyZ2JhKDUwLDUwLDUwLDEpIiBzdHJva2Utd2lkdGg9IjIiIGZpbGwtb3BhY2l0eT0iMSIgZmlsbD0iIzZlZDQ2NCIvPjxnIGlkPSJTdmdqc0cxMTA4Ij48dGV4dCBpZD0iU3ZnanNUZXh0MTEwOSIgZm9udC1mYW1pbHk9IkFyaWFsIiB0ZXh0LWFuY2hvcj0ibWlkZGxlIiBmb250LXNpemU9IjEzcHgiIHdpZHRoPSI4MHB4IiBmaWxsPSIjMzIzMjMyIiBmb250LXdlaWdodD0iNDAwIiBhbGlnbj0ibWlkZGxlIiBhbmNob3I9Im1pZGRsZSIgZmFtaWx5PSJBcmlhbCIgc2l6ZT0iMTNweCIgd2VpZ2h0PSI0MDAiIGZvbnQtc3R5bGU9IiIgb3BhY2l0eT0iMSIgeT0iMS4wNSIgdHJhbnNmb3JtPSJyb3RhdGUoMCkiPjx0c3BhbiBpZD0iU3ZnanNUc3BhbjExMTAiIGR5PSIxNiIgeD0iNTAiPjx0c3BhbiBpZD0iU3ZnanNUc3BhbjExMTEiIHN0eWxlPSJ0ZXh0LWRlY29yYXRpb246OyI+6L+U5Zue57uT5p6cL+WGmTwvdHNwYW4+PC90c3Bhbj48dHNwYW4gaWQ9IlN2Z2pzVHNwYW4xMTEyIiBkeT0iMTYiIHg9IjUwIj48dHNwYW4gaWQ9IlN2Z2pzVHNwYW4xMTEzIiBzdHlsZT0idGV4dC1kZWNvcmF0aW9uOjsiPumUmeivr+aXpeW/ly/mm7Q8L3RzcGFuPjwvdHNwYW4+PHRzcGFuIGlkPSJTdmdqc1RzcGFuMTExNCIgZHk9IjE2IiB4PSI1MCI+PHRzcGFuIGlkPSJTdmdqc1RzcGFuMTExNSIgc3R5bGU9InRleHQtZGVjb3JhdGlvbjo7Ij7mlrDku7vliqHmlbDmja48L3RzcGFuPjwvdHNwYW4+PHRzcGFuIGlkPSJTdmdqc1RzcGFuMTExNiIgZHk9IjE2IiB4PSI1MCI+PHRzcGFuIGlkPSJTdmdqc1RzcGFuMTExNyIgc3R5bGU9InRleHQtZGVjb3JhdGlvbjo7Ij7CoDwvdHNwYW4+PC90c3Bhbj48L3RleHQ+PC9nPjwvZz48ZyBpZD0iU3ZnanNHMTExOCIgdHJhbnNmb3JtPSJ0cmFuc2xhdGUoNzQ1LjQ5OTk5OTk5OTk5OTksNjU5LjUpIj48cGF0aCBpZD0iU3ZnanNQYXRoMTExOSIgZD0iTSAwIDRRIDAgMCA0IDBMIDIyNiAwUSAyMzAgMCAyMzAgNEwgMjMwIDkwUSAyMzAgOTQgMjI2IDk0TCA0IDk0USAwIDk0IDAgOTBaIiBzdHJva2U9InJnYmEoNTAsNTAsNTAsMSkiIHN0cm9rZS13aWR0aD0iMiIgZmlsbC1vcGFjaXR5PSIxIiBmaWxsPSIjODBmZjAwIi8+PHBhdGggaWQ9IlN2Z2pzUGF0aDExMjAiIGQ9Ik0gMCAzMEwgMjMwIDMwIiBzdHJva2U9InJnYmEoNTAsNTAsNTAsMSkiIHN0cm9rZS13aWR0aD0iMiIgZmlsbD0ibm9uZSIvPjxwYXRoIGlkPSJTdmdqc1BhdGgxMTIxIiBkPSJNIDAgMEwgMjMwIDBMIDIzMCA5NEwgMCA5NFoiIHN0cm9rZT0ibm9uZSIgZmlsbD0ibm9uZSIvPjxnIGlkPSJTdmdqc0cxMTIyIj48dGV4dCBpZD0iU3ZnanNUZXh0MTEyMyIgZm9udC1mYW1pbHk9IkFyaWFsIiB0ZXh0LWFuY2hvcj0ibWlkZGxlIiBmb250LXNpemU9IjEzcHgiIHdpZHRoPSIyMTBweCIgZmlsbD0iIzMyMzIzMiIgZm9udC13ZWlnaHQ9IjcwMCIgYWxpZ249Im1pZGRsZSIgYW5jaG9yPSJtaWRkbGUiIGZhbWlseT0iQXJpYWwiIHNpemU9IjEzcHgiIHdlaWdodD0iNzAwIiBmb250LXN0eWxlPSIiIG9wYWNpdHk9IjEiIHk9IjUuMDUiIHRyYW5zZm9ybT0icm90YXRlKDApIj48dHNwYW4gaWQ9IlN2Z2pzVHNwYW4xMTI0IiBkeT0iMTYiIHg9IjExNSI+PHRzcGFuIGlkPSJTdmdqc1RzcGFuMTEyNSIgc3R5bGU9InRleHQtZGVjb3JhdGlvbjo7Ij7ov5Tlm57nu5Pmnpw8L3RzcGFuPjwvdHNwYW4+PC90ZXh0PjwvZz48ZyBpZD0iU3ZnanNHMTEyNiI+PHRleHQgaWQ9IlN2Z2pzVGV4dDExMjciIGZvbnQtZmFtaWx5PSJBcmlhbCIgdGV4dC1hbmNob3I9InN0YXJ0IiBmb250LXNpemU9IjEzcHgiIHdpZHRoPSIyMTBweCIgZmlsbD0iIzMyMzIzMiIgZm9udC13ZWlnaHQ9IjQwMCIgYWxpZ249Im1pZGRsZSIgYW5jaG9yPSJzdGFydCIgZmFtaWx5PSJBcmlhbCIgc2l6ZT0iMTNweCIgd2VpZ2h0PSI0MDAiIGZvbnQtc3R5bGU9IiIgb3BhY2l0eT0iMSIgeT0iMjguMDUiIHRyYW5zZm9ybT0icm90YXRlKDApIj48dHNwYW4gaWQ9IlN2Z2pzVHNwYW4xMTI4IiBkeT0iMTYiIHg9IjEwIj48dHNwYW4gaWQ9IlN2Z2pzVHNwYW4xMTI5IiBzdHlsZT0idGV4dC1kZWNvcmF0aW9uOjsiPlRhc2tJRO+8iOS7u+WKoUlEKTwvdHNwYW4+PC90c3Bhbj48dHNwYW4gaWQ9IlN2Z2pzVHNwYW4xMTMwIiBkeT0iMTYiIHg9IjEwIj48dHNwYW4gaWQ9IlN2Z2pzVHNwYW4xMTMxIiBzdHlsZT0idGV4dC1kZWNvcmF0aW9uOjsiPkVycm9yQ29kZe+8iOmUmeivr+S7o+egge+8jDAg5oiQ5Yqf77yMMeWksTwvdHNwYW4+PC90c3Bhbj48dHNwYW4gaWQ9IlN2Z2pzVHNwYW4xMTMyIiBkeT0iMTYiIHg9IjEwIj48dHNwYW4gaWQ9IlN2Z2pzVHNwYW4xMTMzIiBzdHlsZT0idGV4dC1kZWNvcmF0aW9uOjsiPui0pe+8iTwvdHNwYW4+PC90c3Bhbj48dHNwYW4gaWQ9IlN2Z2pzVHNwYW4xMTM0IiBkeT0iMTYiIHg9IjEwIj48dHNwYW4gaWQ9IlN2Z2pzVHNwYW4xMTM1IiBzdHlsZT0idGV4dC1kZWNvcmF0aW9uOjsiPkVycm9yVGV4dO+8iOmUmeivr+aPj+i/sO+8iTwvdHNwYW4+PC90c3Bhbj48L3RleHQ+PC9nPjwvZz48ZyBpZD0iU3ZnanNHMTEzNiI+PHBhdGggaWQ9IlN2Z2pzUGF0aDExMzciIGQ9Ik0zNjEuOTk5OTk5OTk5OTk5OSA2MTdMMzYxLjk5OTk5OTk5OTk5OTkgNjM2LjVMMzYyLjk5OTk5OTk5OTk5OTkgNjM2LjVMMzYyLjk5OTk5OTk5OTk5OTkgNjU2IiBzdHJva2U9IiMzMjMyMzIiIHN0cm9rZS13aWR0aD0iMiIgZmlsbD0ibm9uZSIgbWFya2VyLWVuZD0idXJsKCNTdmdqc01hcmtlcjExMzgpIi8+PC9nPjxnIGlkPSJTdmdqc0cxMTQwIiB0cmFuc2Zvcm09InRyYW5zbGF0ZSgzMTIuOTk5OTk5OTk5OTk5OSw1NTIpIj48cGF0aCBpZD0iU3ZnanNQYXRoMTE0MSIgZD0iTSAwIDBMIDEwMCAwTCAxMDAgNzBMIDAgNzBaIiBzdHJva2U9InJnYmEoNTAsNTAsNTAsMSkiIHN0cm9rZS13aWR0aD0iMiIgZmlsbC1vcGFjaXR5PSIxIiBmaWxsPSIjNmVkNDY0Ii8+PGcgaWQ9IlN2Z2pzRzExNDIiPjx0ZXh0IGlkPSJTdmdqc1RleHQxMTQzIiBmb250LWZhbWlseT0iQXJpYWwiIHRleHQtYW5jaG9yPSJtaWRkbGUiIGZvbnQtc2l6ZT0iMTNweCIgd2lkdGg9IjgwcHgiIGZpbGw9IiMzMjMyMzIiIGZvbnQtd2VpZ2h0PSI0MDAiIGFsaWduPSJtaWRkbGUiIGFuY2hvcj0ibWlkZGxlIiBmYW1pbHk9IkFyaWFsIiBzaXplPSIxM3B4IiB3ZWlnaHQ9IjQwMCIgZm9udC1zdHlsZT0iIiBvcGFjaXR5PSIxIiB5PSIxNy4wNSIgdHJhbnNmb3JtPSJyb3RhdGUoMCkiPjx0c3BhbiBpZD0iU3ZnanNUc3BhbjExNDQiIGR5PSIxNiIgeD0iNTAiPjx0c3BhbiBpZD0iU3ZnanNUc3BhbjExNDUiIHN0eWxlPSJ0ZXh0LWRlY29yYXRpb246OyI+5LuOVG9rZW5LZXk8L3RzcGFuPjwvdHNwYW4+PHRzcGFuIGlkPSJTdmdqc1RzcGFuMTE0NiIgZHk9IjE2IiB4PSI1MCI+PHRzcGFuIGlkPSJTdmdqc1RzcGFuMTE0NyIgc3R5bGU9InRleHQtZGVjb3JhdGlvbjo7Ij7ojrflj5ZBcHBJRDwvdHNwYW4+PC90c3Bhbj48L3RleHQ+PC9nPjwvZz48ZyBpZD0iU3ZnanNHMTE0OCIgdHJhbnNmb3JtPSJ0cmFuc2xhdGUoMzEyLjQ5OTk5OTk5OTk5OTksODc4KSI+PHBhdGggaWQ9IlN2Z2pzUGF0aDExNDkiIGQ9Ik0gMCA0Mi41TCA1MC41IDBMIDEwMSA0Mi41TCA1MC41IDg1TCAwIDQyLjVaIiBzdHJva2U9InJnYmEoNTAsNTAsNTAsMSkiIHN0cm9rZS13aWR0aD0iMiIgZmlsbC1vcGFjaXR5PSIxIiBmaWxsPSIjNmVkNDY0Ii8+PGcgaWQ9IlN2Z2pzRzExNTAiPjx0ZXh0IGlkPSJTdmdqc1RleHQxMTUxIiBmb250LWZhbWlseT0iQXJpYWwiIHRleHQtYW5jaG9yPSJtaWRkbGUiIGZvbnQtc2l6ZT0iMTNweCIgd2lkdGg9IjgxcHgiIGZpbGw9IiMzMjMyMzIiIGZvbnQtd2VpZ2h0PSI0MDAiIGFsaWduPSJtaWRkbGUiIGFuY2hvcj0ibWlkZGxlIiBmYW1pbHk9IkFyaWFsIiBzaXplPSIxM3B4IiB3ZWlnaHQ9IjQwMCIgZm9udC1zdHlsZT0iIiBvcGFjaXR5PSIxIiB5PSIzMi41NSIgdHJhbnNmb3JtPSJyb3RhdGUoMCkiPjx0c3BhbiBpZD0iU3ZnanNUc3BhbjExNTIiIGR5PSIxNiIgeD0iNTAuNSI+PHRzcGFuIGlkPSJTdmdqc1RzcGFuMTE1MyIgc3R5bGU9InRleHQtZGVjb3JhdGlvbjo7Ij7pqozor4E8L3RzcGFuPjwvdHNwYW4+PC90ZXh0PjwvZz48L2c+PGcgaWQ9IlN2Z2pzRzExNTQiIHRyYW5zZm9ybT0idHJhbnNsYXRlKDMxMi45OTk5OTk5OTk5OTk5LDEwMDMpIj48cGF0aCBpZD0iU3ZnanNQYXRoMTE1NSIgZD0iTSAwIDBMIDEwMCAwTCAxMDAgNzBMIDAgNzBaIiBzdHJva2U9InJnYmEoNTAsNTAsNTAsMSkiIHN0cm9rZS13aWR0aD0iMiIgZmlsbC1vcGFjaXR5PSIxIiBmaWxsPSIjNmVkNDY0Ii8+PGcgaWQ9IlN2Z2pzRzExNTYiPjx0ZXh0IGlkPSJTdmdqc1RleHQxMTU3IiBmb250LWZhbWlseT0iQXJpYWwiIHRleHQtYW5jaG9yPSJtaWRkbGUiIGZvbnQtc2l6ZT0iMTNweCIgd2lkdGg9IjgwcHgiIGZpbGw9IiMzMjMyMzIiIGZvbnQtd2VpZ2h0PSI0MDAiIGFsaWduPSJtaWRkbGUiIGFuY2hvcj0ibWlkZGxlIiBmYW1pbHk9IkFyaWFsIiBzaXplPSIxM3B4IiB3ZWlnaHQ9IjQwMCIgZm9udC1zdHlsZT0iIiBvcGFjaXR5PSIxIiB5PSI5LjA1IiB0cmFuc2Zvcm09InJvdGF0ZSgwKSI+PHRzcGFuIGlkPSJTdmdqc1RzcGFuMTE1OCIgZHk9IjE2IiB4PSI1MCI+PHRzcGFuIGlkPSJTdmdqc1RzcGFuMTE1OSIgc3R5bGU9InRleHQtZGVjb3JhdGlvbjo7Ij7orrDlvZXor6XlubPlj7Dlt7I8L3RzcGFuPjwvdHNwYW4+PHRzcGFuIGlkPSJTdmdqc1RzcGFuMTE2MCIgZHk9IjE2IiB4PSI1MCI+PHRzcGFuIGlkPSJTdmdqc1RzcGFuMTE2MSIgc3R5bGU9InRleHQtZGVjb3JhdGlvbjo7Ij7lnKjmiafooYzmlbDmja7mj5A8L3RzcGFuPjwvdHNwYW4+PHRzcGFuIGlkPSJTdmdqc1RzcGFuMTE2MiIgZHk9IjE2IiB4PSI1MCI+PHRzcGFuIGlkPSJTdmdqc1RzcGFuMTE2MyIgc3R5bGU9InRleHQtZGVjb3JhdGlvbjo7Ij7kuqTlt6XkvZw8L3RzcGFuPjwvdHNwYW4+PC90ZXh0PjwvZz48L2c+PGcgaWQ9IlN2Z2pzRzExNjQiPjxwYXRoIGlkPSJTdmdqc1BhdGgxMTY1IiBkPSJNMzYyLjk5OTk5OTk5OTk5OTkgOTYzTDM2Mi45OTk5OTk5OTk5OTk5IDk4M0wzNjIuOTk5OTk5OTk5OTk5OSA5ODNMMzYyLjk5OTk5OTk5OTk5OTkgMTAwMyIgc3Ryb2tlPSIjMzIzMjMyIiBzdHJva2Utd2lkdGg9IjIiIGZpbGw9Im5vbmUiIG1hcmtlci1lbmQ9InVybCgjU3ZnanNNYXJrZXIxMTY2KSIvPjwvZz48ZyBpZD0iU3ZnanNHMTE2OCI+PHBhdGggaWQ9IlN2Z2pzUGF0aDExNjkiIGQ9Ik00MTMuNDk5OTk5OTk5OTk5OSA5MjAuNUw0NTQuNzQ5OTk5OTk5OTk5OSA5MjAuNUw0NTQuNzQ5OTk5OTk5OTk5OSA5MjAuNUw0OTUuOTk5OTk5OTk5OTk5OSA5MjAuNSIgc3Ryb2tlPSIjMzIzMjMyIiBzdHJva2Utd2lkdGg9IjIiIGZpbGw9Im5vbmUiIG1hcmtlci1lbmQ9InVybCgjU3ZnanNNYXJrZXIxMTcwKSIvPjxyZWN0IGlkPSJTdmdqc1JlY3QxMTcyIiB3aWR0aD0iMjYiIGhlaWdodD0iMTYiIHg9IjQ0MS43NDk5OTk5OTk5OTk5IiB5PSI5MTIuNSIgZmlsbD0iI2ZmZmZmZiIvPjx0ZXh0IGlkPSJTdmdqc1RleHQxMTczIiBmb250LWZhbWlseT0iQXJpYWwiIHRleHQtYW5jaG9yPSJtaWRkbGUiIGZvbnQtc2l6ZT0iMTNweCIgd2lkdGg9IjI2cHgiIGZpbGw9IiMzMjMyMzIiIGZvbnQtd2VpZ2h0PSI0MDAiIGFsaWduPSJ0b3AiIGFuY2hvcj0ibWlkZGxlIiBmYW1pbHk9IkFyaWFsIiBzaXplPSIxM3B4IiB3ZWlnaHQ9IjQwMCIgZm9udC1zdHlsZT0iIiBvcGFjaXR5PSIxIiB5PSI5MTAuNTUiIHRyYW5zZm9ybT0icm90YXRlKDApIj48dHNwYW4gaWQ9IlN2Z2pzVHNwYW4xMTc0IiBkeT0iMTYiIHg9IjQ1NC43NDk5OTk5OTk5OTk5Ij48dHNwYW4gaWQ9IlN2Z2pzVHNwYW4xMTc1IiBzdHlsZT0idGV4dC1kZWNvcmF0aW9uOjsiPuWksei0pTwvdHNwYW4+PC90c3Bhbj48L3RleHQ+PC9nPjxnIGlkPSJTdmdqc0cxMTc2Ij48cGF0aCBpZD0iU3ZnanNQYXRoMTE3NyIgZD0iTTM2NyAxNjEuMDAwMDAwMDAwMDAwMDZMMzY3IDE4OS41MDAwMDAwMDAwMDAwM0wzNjIuOTk5OTk5OTk5OTk5OSAxODkuNTAwMDAwMDAwMDAwMDNMMzYyLjk5OTk5OTk5OTk5OTkgMjE4IiBzdHJva2U9IiMzMjMyMzIiIHN0cm9rZS13aWR0aD0iMiIgZmlsbD0ibm9uZSIgbWFya2VyLWVuZD0idXJsKCNTdmdqc01hcmtlcjExNzgpIi8+PHJlY3QgaWQ9IlN2Z2pzUmVjdDExODAiIHdpZHRoPSIyNiIgaGVpZ2h0PSIxNiIgeD0iMzUxLjk5OTk5OTk5OTk5OTk0IiB5PSIxODEuNTAwMDAwMDAwMDAwMDMiIGZpbGw9IiNmZmZmZmYiLz48dGV4dCBpZD0iU3ZnanNUZXh0MTE4MSIgZm9udC1mYW1pbHk9IkFyaWFsIiB0ZXh0LWFuY2hvcj0ibWlkZGxlIiBmb250LXNpemU9IjEzcHgiIHdpZHRoPSIyNnB4IiBmaWxsPSIjMzIzMjMyIiBmb250LXdlaWdodD0iNDAwIiBhbGlnbj0idG9wIiBhbmNob3I9Im1pZGRsZSIgZmFtaWx5PSJBcmlhbCIgc2l6ZT0iMTNweCIgd2VpZ2h0PSI0MDAiIGZvbnQtc3R5bGU9IiIgb3BhY2l0eT0iMSIgeT0iMTc5LjU1MDAwMDAwMDAwMDA0IiB0cmFuc2Zvcm09InJvdGF0ZSgwKSI+PHRzcGFuIGlkPSJTdmdqc1RzcGFuMTE4MiIgZHk9IjE2IiB4PSIzNjQuOTk5OTk5OTk5OTk5OTQiPjx0c3BhbiBpZD0iU3ZnanNUc3BhbjExODMiIHN0eWxlPSJ0ZXh0LWRlY29yYXRpb246OyI+5o+Q5LqkPC90c3Bhbj48L3RzcGFuPjwvdGV4dD48L2c+PGcgaWQ9IlN2Z2pzRzExODQiIHRyYW5zZm9ybT0idHJhbnNsYXRlKDczMS45OTk5OTk5OTk5OTk5LDI4OCkiPjxwYXRoIGlkPSJTdmdqc1BhdGgxMTg1IiBkPSJNIDAgNFEgMCAwIDQgMEwgMjUzIDBRIDI1NyAwIDI1NyA0TCAyNTcgMTM2LjVRIDI1NyAxNDAuNSAyNTMgMTQwLjVMIDQgMTQwLjVRIDAgMTQwLjUgMCAxMzYuNVoiIHN0cm9rZT0icmdiYSg1MCw1MCw1MCwxKSIgc3Ryb2tlLXdpZHRoPSIyIiBmaWxsLW9wYWNpdHk9IjEiIGZpbGw9IiM4MGZmMDAiLz48cGF0aCBpZD0iU3ZnanNQYXRoMTE4NiIgZD0iTSAwIDMwTCAyNTcgMzAiIHN0cm9rZT0icmdiYSg1MCw1MCw1MCwxKSIgc3Ryb2tlLXdpZHRoPSIyIiBmaWxsPSJub25lIi8+PHBhdGggaWQ9IlN2Z2pzUGF0aDExODciIGQ9Ik0gMCAwTCAyNTcgMEwgMjU3IDE0MC41TCAwIDE0MC41WiIgc3Ryb2tlPSJub25lIiBmaWxsPSJub25lIi8+PGcgaWQ9IlN2Z2pzRzExODgiPjx0ZXh0IGlkPSJTdmdqc1RleHQxMTg5IiBmb250LWZhbWlseT0iQXJpYWwiIHRleHQtYW5jaG9yPSJtaWRkbGUiIGZvbnQtc2l6ZT0iMTNweCIgd2lkdGg9IjIzN3B4IiBmaWxsPSIjMzIzMjMyIiBmb250LXdlaWdodD0iNzAwIiBhbGlnbj0ibWlkZGxlIiBhbmNob3I9Im1pZGRsZSIgZmFtaWx5PSJBcmlhbCIgc2l6ZT0iMTNweCIgd2VpZ2h0PSI3MDAiIGZvbnQtc3R5bGU9IiIgb3BhY2l0eT0iMSIgeT0iNS4wNSIgdHJhbnNmb3JtPSJyb3RhdGUoMCkiPjx0c3BhbiBpZD0iU3ZnanNUc3BhbjExOTAiIGR5PSIxNiIgeD0iMTI4LjUiPjx0c3BhbiBpZD0iU3ZnanNUc3BhbjExOTEiIHN0eWxlPSJ0ZXh0LWRlY29yYXRpb246OyI+5a+85YWl5Lu75Yqh6KGoPC90c3Bhbj48L3RzcGFuPjwvdGV4dD48L2c+PGcgaWQ9IlN2Z2pzRzExOTIiPjx0ZXh0IGlkPSJTdmdqc1RleHQxMTkzIiBmb250LWZhbWlseT0iQXJpYWwiIHRleHQtYW5jaG9yPSJzdGFydCIgZm9udC1zaXplPSIxM3B4IiB3aWR0aD0iMjM3cHgiIGZpbGw9IiMzMjMyMzIiIGZvbnQtd2VpZ2h0PSI0MDAiIGFsaWduPSJtaWRkbGUiIGFuY2hvcj0ic3RhcnQiIGZhbWlseT0iQXJpYWwiIHNpemU9IjEzcHgiIHdlaWdodD0iNDAwIiBmb250LXN0eWxlPSIiIG9wYWNpdHk9IjEiIHk9IjM1LjMiIHRyYW5zZm9ybT0icm90YXRlKDApIj48dHNwYW4gaWQ9IlN2Z2pzVHNwYW4xMTk0IiBkeT0iMTYiIHg9IjEwIj48dHNwYW4gaWQ9IlN2Z2pzVHNwYW4xMTk1IiBzdHlsZT0idGV4dC1kZWNvcmF0aW9uOjsiPkFwcElE77yIaW5077yM5bmz5Y+wSUQs77yJPC90c3Bhbj48L3RzcGFuPjx0c3BhbiBpZD0iU3ZnanNUc3BhbjExOTYiIGR5PSIxNiIgeD0iMTAiPjx0c3BhbiBpZD0iU3ZnanNUc3BhbjExOTciIHN0eWxlPSJ0ZXh0LWRlY29yYXRpb246OyI+VGFza0lE77yIR1VJRO+8jOS7u+WKoUlE77yJPC90c3Bhbj48L3RzcGFuPjx0c3BhbiBpZD0iU3ZnanNUc3BhbjExOTgiIGR5PSIxNiIgeD0iMTAiPjx0c3BhbiBpZD0iU3ZnanNUc3BhbjExOTkiIHN0eWxlPSJ0ZXh0LWRlY29yYXRpb246OyI+U3RhdHVz77yIaW5077yM5omn6KGM54q25oCBIDEg5omn6KGM5Lit44CBMiDlt7Llrow8L3RzcGFuPjwvdHNwYW4+PHRzcGFuIGlkPSJTdmdqc1RzcGFuMTIwMCIgZHk9IjE2IiB4PSIxMCI+PHRzcGFuIGlkPSJTdmdqc1RzcGFuMTIwMSIgc3R5bGU9InRleHQtZGVjb3JhdGlvbjo7Ij7miJDjgIEzIOWksei0pe+8iTwvdHNwYW4+PC90c3Bhbj48dHNwYW4gaWQ9IlN2Z2pzVHNwYW4xMjAyIiBkeT0iMTYiIHg9IjEwIj48dHNwYW4gaWQ9IlN2Z2pzVHNwYW4xMjAzIiBzdHlsZT0idGV4dC1kZWNvcmF0aW9uOjsiPkVycm9yVGV4dCDvvIhzdHJpbmfvvIzplJnor6/ljp/lm6DvvIk8L3RzcGFuPjwvdHNwYW4+PHRzcGFuIGlkPSJTdmdqc1RzcGFuMTIwNCIgZHk9IjE2IiB4PSIxMCI+PHRzcGFuIGlkPSJTdmdqc1RzcGFuMTIwNSIgc3R5bGU9InRleHQtZGVjb3JhdGlvbjo7Ij5DcmVhdGVUaW1lIChEYXRlVGltZe+8jOWIm+W7uuaXtumXtO+8iTwvdHNwYW4+PC90c3Bhbj48L3RleHQ+PC9nPjwvZz48ZyBpZD0iU3ZnanNHMTIwNiIgdHJhbnNmb3JtPSJ0cmFuc2xhdGUoNzQuMDAwMDAwMDAwMDAwMSw4ODUuNSkiPjxwYXRoIGlkPSJTdmdqc1BhdGgxMjA3IiBkPSJNIDAgMEwgMTU1Ljk5OTk5OTk5OTk5OTkgMEwgMTcxLjk5OTk5OTk5OTk5OTkgMTZMIDE3MS45OTk5OTk5OTk5OTk5IDE2M0wgMCAxNjNMIDAgMFoiIHN0cm9rZT0ibm9uZSIgZmlsbC1vcGFjaXR5PSIxIiBmaWxsPSIjZmZmZmFhIi8+PHBhdGggaWQ9IlN2Z2pzUGF0aDEyMDgiIGQ9Ik0gMTU1Ljk5OTk5OTk5OTk5OTkgMEwgMTU1Ljk5OTk5OTk5OTk5OTkgMTZMIDE3MS45OTk5OTk5OTk5OTk5IDE2WiIgc3Ryb2tlPSJub25lIiBmaWxsLW9wYWNpdHk9IjEiIGZpbGw9IiNjZGNkY2QiLz48cGF0aCBpZD0iU3ZnanNQYXRoMTIwOSIgZD0iTSAwIDBMIDE1NS45OTk5OTk5OTk5OTk5IDBMIDE3MS45OTk5OTk5OTk5OTk5IDE2TCAxNzEuOTk5OTk5OTk5OTk5OSAxNjNMIDAgMTYzTCAwIDBaIiBzdHJva2U9Im5vbmUiIGZpbGw9Im5vbmUiLz48ZyBpZD0iU3ZnanNHMTIxMCI+PHRleHQgaWQ9IlN2Z2pzVGV4dDEyMTEiIGZvbnQtZmFtaWx5PSJBcmlhbCIgdGV4dC1hbmNob3I9InN0YXJ0IiBmb250LXNpemU9IjEzcHgiIHdpZHRoPSIxNTJweCIgZmlsbD0iIzMyMzIzMiIgZm9udC13ZWlnaHQ9IjQwMCIgYWxpZ249Im1pZGRsZSIgYW5jaG9yPSJzdGFydCIgZmFtaWx5PSJBcmlhbCIgc2l6ZT0iMTNweCIgd2VpZ2h0PSI0MDAiIGZvbnQtc3R5bGU9IiIgb3BhY2l0eT0iMSIgeT0iMjMuNTUiIHRyYW5zZm9ybT0icm90YXRlKDApIj48dHNwYW4gaWQ9IlN2Z2pzVHNwYW4xMjEyIiBkeT0iMTYiIHg9IjEwIj48dHNwYW4gaWQ9IlN2Z2pzVHNwYW4xMjEzIiBzdHlsZT0idGV4dC1kZWNvcmF0aW9uOjsiPjHjgIHpqozor4Hor6XlubPlj7DmmK/lkKbotoXlh7rku7s8L3RzcGFuPjwvdHNwYW4+PHRzcGFuIGlkPSJTdmdqc1RzcGFuMTIxNCIgZHk9IjE2IiB4PSIxMCI+PHRzcGFuIGlkPSJTdmdqc1RzcGFuMTIxNSIgc3R5bGU9InRleHQtZGVjb3JhdGlvbjo7Ij7liqHmlbDvvIg8L3RzcGFuPjx0c3BhbiBpZD0iU3ZnanNUc3BhbjEyMTYiIHN0eWxlPSJ0ZXh0LWRlY29yYXRpb246O2ZpbGw6IHJnYigyNTUsIDUxLCA1MSk7Ij7pqozor4HnmoTml7blgJnpnIDopoHmn6U8L3RzcGFuPjwvdHNwYW4+PHRzcGFuIGlkPSJTdmdqc1RzcGFuMTIxNyIgZHk9IjE2IiB4PSIxMCI+PHRzcGFuIGlkPSJTdmdqc1RzcGFuMTIxOCIgc3R5bGU9InRleHQtZGVjb3JhdGlvbjo7ZmlsbDogcmdiKDI1NSwgNTEsIDUxKTsiPuivouivpeW5s+WPsOWcqOaJp+ihjOeahOS7u+WKoeaYrzwvdHNwYW4+PC90c3Bhbj48dHNwYW4gaWQ9IlN2Z2pzVHNwYW4xMjE5IiBkeT0iMTYiIHg9IjEwIj48dHNwYW4gaWQ9IlN2Z2pzVHNwYW4xMjIwIiBzdHlsZT0idGV4dC1kZWNvcmF0aW9uOjtmaWxsOiByZ2IoMjU1LCA1MSwgNTEpOyI+5ZCm6LaF6L+H6YWN572u5YC8PC90c3Bhbj48dHNwYW4gaWQ9IlN2Z2pzVHNwYW4xMjIxIiBzdHlsZT0idGV4dC1kZWNvcmF0aW9uOjsiPu+8iTwvdHNwYW4+PC90c3Bhbj48dHNwYW4gaWQ9IlN2Z2pzVHNwYW4xMjIyIiBkeT0iMTYiIHg9IjEwIj48dHNwYW4gaWQ9IlN2Z2pzVHNwYW4xMjIzIiBzdHlsZT0idGV4dC1kZWNvcmF0aW9uOjsiPjLjgIHmmK/lkKbotoXlh7rmnIDlpKfmlbDmja7ph488L3RzcGFuPjwvdHNwYW4+PHRzcGFuIGlkPSJTdmdqc1RzcGFuMTIyNCIgZHk9IjE2IiB4PSIxMCI+PHRzcGFuIGlkPSJTdmdqc1RzcGFuMTIyNSIgc3R5bGU9InRleHQtZGVjb3JhdGlvbjo7Ij4z44CB5piv5ZCm5pyJUGhvbmVOdW3kuLrnqbo8L3RzcGFuPjwvdHNwYW4+PHRzcGFuIGlkPSJTdmdqc1RzcGFuMTIyNiIgZHk9IjE2IiB4PSIxMCI+PHRzcGFuIGlkPSJTdmdqc1RzcGFuMTIyNyIgc3R5bGU9InRleHQtZGVjb3JhdGlvbjo7Ij7nmoTmiJbkuI3mmK/miYvmnLrlj7fnoIHnmoTmlbDmja48L3RzcGFuPjwvdHNwYW4+PC90ZXh0PjwvZz48L2c+PGcgaWQ9IlN2Z2pzRzEyMjgiIHRyYW5zZm9ybT0idHJhbnNsYXRlKDMxMi45OTk5OTk5OTk5OTk5LDEyMTguNSkiPjxwYXRoIGlkPSJTdmdqc1BhdGgxMjI5IiBkPSJNIDAgMzVMIDUwIDBMIDEwMCAzNUwgNTAgNzBMIDAgMzVaIiBzdHJva2U9InJnYmEoNTAsNTAsNTAsMSkiIHN0cm9rZS13aWR0aD0iMiIgZmlsbC1vcGFjaXR5PSIxIiBmaWxsPSIjNmVkNDY0Ii8+PGcgaWQ9IlN2Z2pzRzEyMzAiPjx0ZXh0IGlkPSJTdmdqc1RleHQxMjMxIiBmb250LWZhbWlseT0iQXJpYWwiIHRleHQtYW5jaG9yPSJtaWRkbGUiIGZvbnQtc2l6ZT0iMTNweCIgd2lkdGg9IjgwcHgiIGZpbGw9IiMzMjMyMzIiIGZvbnQtd2VpZ2h0PSI0MDAiIGFsaWduPSJtaWRkbGUiIGFuY2hvcj0ibWlkZGxlIiBmYW1pbHk9IkFyaWFsIiBzaXplPSIxM3B4IiB3ZWlnaHQ9IjQwMCIgZm9udC1zdHlsZT0iIiBvcGFjaXR5PSIxIiB5PSIxNy4wNSIgdHJhbnNmb3JtPSJyb3RhdGUoMCkiPjx0c3BhbiBpZD0iU3ZnanNUc3BhbjEyMzIiIGR5PSIxNiIgeD0iNTAiPjx0c3BhbiBpZD0iU3ZnanNUc3BhbjEyMzMiIHN0eWxlPSJ0ZXh0LWRlY29yYXRpb246OyI+5piv5ZCm5YWo6YOo5YaZ5YWlPC90c3Bhbj48L3RzcGFuPjx0c3BhbiBpZD0iU3ZnanNUc3BhbjEyMzQiIGR5PSIxNiIgeD0iNTAiPjx0c3BhbiBpZD0iU3ZnanNUc3BhbjEyMzUiIHN0eWxlPSJ0ZXh0LWRlY29yYXRpb246OyI+5oiQ5Yqf77yfPC90c3Bhbj48L3RzcGFuPjwvdGV4dD48L2c+PC9nPjxnIGlkPSJTdmdqc0cxMjM2IiB0cmFuc2Zvcm09InRyYW5zbGF0ZSgzMTIuOTk5OTk5OTk5OTk5OSw3NjkuNSkiPjxwYXRoIGlkPSJTdmdqc1BhdGgxMjM3IiBkPSJNIDAgMEwgMTAwIDBMIDEwMCA3MEwgMCA3MFoiIHN0cm9rZT0icmdiYSg1MCw1MCw1MCwxKSIgc3Ryb2tlLXdpZHRoPSIyIiBmaWxsLW9wYWNpdHk9IjEiIGZpbGw9IiM2ZWQ0NjQiLz48ZyBpZD0iU3ZnanNHMTIzOCI+PHRleHQgaWQ9IlN2Z2pzVGV4dDEyMzkiIGZvbnQtZmFtaWx5PSJBcmlhbCIgdGV4dC1hbmNob3I9Im1pZGRsZSIgZm9udC1zaXplPSIxM3B4IiB3aWR0aD0iODBweCIgZmlsbD0iIzMyMzIzMiIgZm9udC13ZWlnaHQ9IjQwMCIgYWxpZ249Im1pZGRsZSIgYW5jaG9yPSJtaWRkbGUiIGZhbWlseT0iQXJpYWwiIHNpemU9IjEzcHgiIHdlaWdodD0iNDAwIiBmb250LXN0eWxlPSIiIG9wYWNpdHk9IjEiIHk9IjI1LjA1IiB0cmFuc2Zvcm09InJvdGF0ZSgwKSI+PHRzcGFuIGlkPSJTdmdqc1RzcGFuMTI0MCIgZHk9IjE2IiB4PSI1MCI+PHRzcGFuIGlkPSJTdmdqc1RzcGFuMTI0MSIgc3R5bGU9InRleHQtZGVjb3JhdGlvbjo7Ij7or7vlj5bphY3nva48L3RzcGFuPjwvdHNwYW4+PC90ZXh0PjwvZz48L2c+PGcgaWQ9IlN2Z2pzRzEyNDIiPjxwYXRoIGlkPSJTdmdqc1BhdGgxMjQzIiBkPSJNMzYyLjk5OTk5OTk5OTk5OTkgNzI2TDM2Mi45OTk5OTk5OTk5OTk5IDc0Ny43NUwzNjIuOTk5OTk5OTk5OTk5OSA3NDcuNzVMMzYyLjk5OTk5OTk5OTk5OTkgNzY5LjUiIHN0cm9rZT0iIzMyMzIzMiIgc3Ryb2tlLXdpZHRoPSIyIiBmaWxsPSJub25lIiBtYXJrZXItZW5kPSJ1cmwoI1N2Z2pzTWFya2VyMTI0NCkiLz48L2c+PGcgaWQ9IlN2Z2pzRzEyNDYiPjxwYXRoIGlkPSJTdmdqc1BhdGgxMjQ3IiBkPSJNMzYyLjk5OTk5OTk5OTk5OTkgODM5LjVMMzYyLjk5OTk5OTk5OTk5OTkgODU4Ljc1TDM2Mi45OTk5OTk5OTk5OTk5IDg1OC43NUwzNjIuOTk5OTk5OTk5OTk5OSA4NzgiIHN0cm9rZT0iIzMyMzIzMiIgc3Ryb2tlLXdpZHRoPSIyIiBmaWxsPSJub25lIiBtYXJrZXItZW5kPSJ1cmwoI1N2Z2pzTWFya2VyMTI0OCkiLz48L2c+PGcgaWQ9IlN2Z2pzRzEyNTAiIHRyYW5zZm9ybT0idHJhbnNsYXRlKDExMyw3NTMuNSkiPjxwYXRoIGlkPSJTdmdqc1BhdGgxMjUxIiBkPSJNIDAgMEwgMTAzIDBMIDExOSAxNkwgMTE5IDEwMkwgMCAxMDJMIDAgMFoiIHN0cm9rZT0ibm9uZSIgZmlsbC1vcGFjaXR5PSIxIiBmaWxsPSIjZmZmZmFhIi8+PHBhdGggaWQ9IlN2Z2pzUGF0aDEyNTIiIGQ9Ik0gMTAzIDBMIDEwMyAxNkwgMTE5IDE2WiIgc3Ryb2tlPSJub25lIiBmaWxsLW9wYWNpdHk9IjEiIGZpbGw9IiNjZGNkY2QiLz48cGF0aCBpZD0iU3ZnanNQYXRoMTI1MyIgZD0iTSAwIDBMIDEwMyAwTCAxMTkgMTZMIDExOSAxMDJMIDAgMTAyTCAwIDBaIiBzdHJva2U9Im5vbmUiIGZpbGw9Im5vbmUiLz48ZyBpZD0iU3ZnanNHMTI1NCI+PHRleHQgaWQ9IlN2Z2pzVGV4dDEyNTUiIGZvbnQtZmFtaWx5PSJBcmlhbCIgdGV4dC1hbmNob3I9InN0YXJ0IiBmb250LXNpemU9IjEzcHgiIHdpZHRoPSI5OXB4IiBmaWxsPSIjMzIzMjMyIiBmb250LXdlaWdodD0iNDAwIiBhbGlnbj0ibWlkZGxlIiBhbmNob3I9InN0YXJ0IiBmYW1pbHk9IkFyaWFsIiBzaXplPSIxM3B4IiB3ZWlnaHQ9IjQwMCIgZm9udC1zdHlsZT0iIiBvcGFjaXR5PSIxIiB5PSIxLjA1IiB0cmFuc2Zvcm09InJvdGF0ZSgwKSI+PHRzcGFuIGlkPSJTdmdqc1RzcGFuMTI1NiIgZHk9IjE2IiB4PSIxMCI+PHRzcGFuIGlkPSJTdmdqc1RzcGFuMTI1NyIgc3R5bGU9InRleHQtZGVjb3JhdGlvbjo7Ij4x44CB5ZCE5bmz5Y+w5pSv5oyB5ZCMPC90c3Bhbj48L3RzcGFuPjx0c3BhbiBpZD0iU3ZnanNUc3BhbjEyNTgiIGR5PSIxNiIgeD0iMTAiPjx0c3BhbiBpZD0iU3ZnanNUc3BhbjEyNTkiIHN0eWxlPSJ0ZXh0LWRlY29yYXRpb246OyI+5pe25Lu75Yqh5pWwPC90c3Bhbj48L3RzcGFuPjx0c3BhbiBpZD0iU3ZnanNUc3BhbjEyNjAiIGR5PSIxNiIgeD0iMTAiPjx0c3BhbiBpZD0iU3ZnanNUc3BhbjEyNjEiIHN0eWxlPSJ0ZXh0LWRlY29yYXRpb246OyI+MuOAgeWFgeiuuOS4gOasoeaPkOS6pDwvdHNwYW4+PC90c3Bhbj48dHNwYW4gaWQ9IlN2Z2pzVHNwYW4xMjYyIiBkeT0iMTYiIHg9IjEwIj48dHNwYW4gaWQ9IlN2Z2pzVHNwYW4xMjYzIiBzdHlsZT0idGV4dC1kZWNvcmF0aW9uOjsiPuacgOWkp+aVsOaNrumHj++8iOWNszwvdHNwYW4+PC90c3Bhbj48dHNwYW4gaWQ9IlN2Z2pzVHNwYW4xMjY0IiBkeT0iMTYiIHg9IjEwIj48dHNwYW4gaWQ9IlN2Z2pzVHNwYW4xMjY1IiBzdHlsZT0idGV4dC1kZWNvcmF0aW9uOjsiPkRhdGFzLkNvdW505pWwPC90c3Bhbj48L3RzcGFuPjx0c3BhbiBpZD0iU3ZnanNUc3BhbjEyNjYiIGR5PSIxNiIgeD0iMTAiPjx0c3BhbiBpZD0iU3ZnanNUc3BhbjEyNjciIHN0eWxlPSJ0ZXh0LWRlY29yYXRpb246OyI+6YeP77yM6buY6K6kNTAwMO+8iTwvdHNwYW4+PC90c3Bhbj48L3RleHQ+PC9nPjwvZz48ZyBpZD0iU3ZnanNHMTI2OCI+PHBhdGggaWQ9IlN2Z2pzUGF0aDEyNjkiIGQ9Ik0yMzIgODA0LjVMMzEyLjk5OTk5OTk5OTk5OTkgODA0LjUiIHN0cm9rZS1kYXNoYXJyYXk9IjMsMyIgc3Ryb2tlPSIjMzIzMjMyIiBzdHJva2Utd2lkdGg9IjIiIGZpbGw9Im5vbmUiLz48L2c+PGcgaWQ9IlN2Z2pzRzEyNzAiPjxwYXRoIGlkPSJTdmdqc1BhdGgxMjcxIiBkPSJNMjQ2IDk2N0wzMTIuNDk5OTk5OTk5OTk5OSA5MjAuNSIgc3Ryb2tlLWRhc2hhcnJheT0iMywzIiBzdHJva2U9IiMzMjMyMzIiIHN0cm9rZS13aWR0aD0iMiIgZmlsbD0ibm9uZSIvPjwvZz48ZyBpZD0iU3ZnanNHMTI3MiIgdHJhbnNmb3JtPSJ0cmFuc2xhdGUoMzEyLjk5OTk5OTk5OTk5OTksMTMyNS41KSI+PHBhdGggaWQ9IlN2Z2pzUGF0aDEyNzMiIGQ9Ik0gMCAwTCAxMDAgMEwgMTAwIDcwTCAwIDcwWiIgc3Ryb2tlPSJyZ2JhKDUwLDUwLDUwLDEpIiBzdHJva2Utd2lkdGg9IjIiIGZpbGwtb3BhY2l0eT0iMSIgZmlsbD0iIzZlZDQ2NCIvPjxnIGlkPSJTdmdqc0cxMjc0Ij48dGV4dCBpZD0iU3ZnanNUZXh0MTI3NSIgZm9udC1mYW1pbHk9IkFyaWFsIiB0ZXh0LWFuY2hvcj0ibWlkZGxlIiBmb250LXNpemU9IjEzcHgiIHdpZHRoPSI4MHB4IiBmaWxsPSIjMzIzMjMyIiBmb250LXdlaWdodD0iNDAwIiBhbGlnbj0ibWlkZGxlIiBhbmNob3I9Im1pZGRsZSIgZmFtaWx5PSJBcmlhbCIgc2l6ZT0iMTNweCIgd2VpZ2h0PSI0MDAiIGZvbnQtc3R5bGU9IiIgb3BhY2l0eT0iMSIgeT0iMTcuMDUiIHRyYW5zZm9ybT0icm90YXRlKDApIj48dHNwYW4gaWQ9IlN2Z2pzVHNwYW4xMjc2IiBkeT0iMTYiIHg9IjUwIj48dHNwYW4gaWQ9IlN2Z2pzVHNwYW4xMjc3IiBzdHlsZT0idGV4dC1kZWNvcmF0aW9uOjsiPui/lOWbnue7k+aenC/mm7Q8L3RzcGFuPjwvdHNwYW4+PHRzcGFuIGlkPSJTdmdqc1RzcGFuMTI3OCIgZHk9IjE2IiB4PSI1MCI+PHRzcGFuIGlkPSJTdmdqc1RzcGFuMTI3OSIgc3R5bGU9InRleHQtZGVjb3JhdGlvbjo7Ij7mlrDku7vliqHmlbDmja7CoDwvdHNwYW4+PC90c3Bhbj48L3RleHQ+PC9nPjwvZz48ZyBpZD0iU3ZnanNHMTI4MCI+PHBhdGggaWQ9IlN2Z2pzUGF0aDEyODEiIGQ9Ik0zNjIuOTk5OTk5OTk5OTk5OSAxMjg4LjVMMzYyLjk5OTk5OTk5OTk5OTkgMTMyNS41IiBzdHJva2U9IiMzMjMyMzIiIHN0cm9rZS13aWR0aD0iMiIgZmlsbD0ibm9uZSIgbWFya2VyLWVuZD0idXJsKCNTdmdqc01hcmtlcjEyODIpIi8+PC9nPjxnIGlkPSJTdmdqc0cxMjg0IiB0cmFuc2Zvcm09InRyYW5zbGF0ZSg2NjEuOTk5OTk5OTk5OTk5OSwxMjEzLjc1KSI+PHBhdGggaWQ9IlN2Z2pzUGF0aDEyODUiIGQ9Ik0gMCAwTCAxMTEuMDAwMDAwMDAwMDAwMTEgMEwgMTI3LjAwMDAwMDAwMDAwMDExIDE2TCAxMjcuMDAwMDAwMDAwMDAwMTEgNzkuNUwgMCA3OS41TCAwIDBaIiBzdHJva2U9Im5vbmUiIGZpbGwtb3BhY2l0eT0iMSIgZmlsbD0iI2ZmZmZhYSIvPjxwYXRoIGlkPSJTdmdqc1BhdGgxMjg2IiBkPSJNIDExMS4wMDAwMDAwMDAwMDAxMSAwTCAxMTEuMDAwMDAwMDAwMDAwMTEgMTZMIDEyNy4wMDAwMDAwMDAwMDAxMSAxNloiIHN0cm9rZT0ibm9uZSIgZmlsbC1vcGFjaXR5PSIxIiBmaWxsPSIjY2RjZGNkIi8+PHBhdGggaWQ9IlN2Z2pzUGF0aDEyODciIGQ9Ik0gMCAwTCAxMTEuMDAwMDAwMDAwMDAwMTEgMEwgMTI3LjAwMDAwMDAwMDAwMDExIDE2TCAxMjcuMDAwMDAwMDAwMDAwMTEgNzkuNUwgMCA3OS41TCAwIDBaIiBzdHJva2U9Im5vbmUiIGZpbGw9Im5vbmUiLz48ZyBpZD0iU3ZnanNHMTI4OCI+PHRleHQgaWQ9IlN2Z2pzVGV4dDEyODkiIGZvbnQtZmFtaWx5PSJBcmlhbCIgdGV4dC1hbmNob3I9InN0YXJ0IiBmb250LXNpemU9IjEzcHgiIHdpZHRoPSIxMDhweCIgZmlsbD0iIzMyMzIzMiIgZm9udC13ZWlnaHQ9IjQwMCIgYWxpZ249Im1pZGRsZSIgYW5jaG9yPSJzdGFydCIgZmFtaWx5PSJBcmlhbCIgc2l6ZT0iMTNweCIgd2VpZ2h0PSI0MDAiIGZvbnQtc3R5bGU9IiIgb3BhY2l0eT0iMSIgeT0iNS44IiB0cmFuc2Zvcm09InJvdGF0ZSgwKSI+PHRzcGFuIGlkPSJTdmdqc1RzcGFuMTI5MCIgZHk9IjE2IiB4PSIxMCI+PHRzcGFuIGlkPSJTdmdqc1RzcGFuMTI5MSIgc3R5bGU9InRleHQtZGVjb3JhdGlvbjo7Ij7lr7zlhaXlpLHotKXnmoTmlbDmja7pobk8L3RzcGFuPjwvdHNwYW4+PHRzcGFuIGlkPSJTdmdqc1RzcGFuMTI5MiIgZHk9IjE2IiB4PSIxMCI+PHRzcGFuIGlkPSJTdmdqc1RzcGFuMTI5MyIgc3R5bGU9InRleHQtZGVjb3JhdGlvbjo7Ij7opoHlrZjvvIjlr7zlhaXku7vliqHlpLE8L3RzcGFuPjwvdHNwYW4+PHRzcGFuIGlkPSJTdmdqc1RzcGFuMTI5NCIgZHk9IjE2IiB4PSIxMCI+PHRzcGFuIGlkPSJTdmdqc1RzcGFuMTI5NSIgc3R5bGU9InRleHQtZGVjb3JhdGlvbjo7Ij7otKXmlbDmja7mmI7nu4booajvvIk8L3RzcGFuPjwvdHNwYW4+PHRzcGFuIGlkPSJTdmdqc1RzcGFuMTI5NiIgZHk9IjE2IiB4PSIxMCI+PHRzcGFuIGlkPSJTdmdqc1RzcGFuMTI5NyIgc3R5bGU9InRleHQtZGVjb3JhdGlvbjo7Ij7CoDwvdHNwYW4+PC90c3Bhbj48L3RleHQ+PC9nPjwvZz48ZyBpZD0iU3ZnanNHMTI5OCI+PHBhdGggaWQ9IlN2Z2pzUGF0aDEyOTkiIGQ9Ik02NjEuOTk5OTk5OTk5OTk5OSAxMjUzLjVMNTk1Ljk5OTk5OTk5OTk5OTkgMTI1My41IiBzdHJva2UtZGFzaGFycmF5PSIzLDMiIHN0cm9rZT0iIzMyMzIzMiIgc3Ryb2tlLXdpZHRoPSIyIiBmaWxsPSJub25lIi8+PC9nPjxnIGlkPSJTdmdqc0cxMzAwIj48cGF0aCBpZD0iU3ZnanNQYXRoMTMwMSIgZD0iTTQxMi45OTk5OTk5OTk5OTk5IDEyNTMuNUw0NTQuNDk5OTk5OTk5OTk5OSAxMjUzLjVMNDU0LjQ5OTk5OTk5OTk5OTkgMTI1My41TDQ5NS45OTk5OTk5OTk5OTk5IDEyNTMuNSIgc3Ryb2tlPSIjMzIzMjMyIiBzdHJva2Utd2lkdGg9IjIiIGZpbGw9Im5vbmUiIG1hcmtlci1lbmQ9InVybCgjU3ZnanNNYXJrZXIxMzAyKSIvPjxyZWN0IGlkPSJTdmdqc1JlY3QxMzA0IiB3aWR0aD0iMjYiIGhlaWdodD0iMTYiIHg9IjQ0MS40OTk5OTk5OTk5OTk5IiB5PSIxMjQ1LjUiIGZpbGw9IiNmZmZmZmYiLz48dGV4dCBpZD0iU3ZnanNUZXh0MTMwNSIgZm9udC1mYW1pbHk9IkFyaWFsIiB0ZXh0LWFuY2hvcj0ibWlkZGxlIiBmb250LXNpemU9IjEzcHgiIHdpZHRoPSIyNnB4IiBmaWxsPSIjMzIzMjMyIiBmb250LXdlaWdodD0iNDAwIiBhbGlnbj0idG9wIiBhbmNob3I9Im1pZGRsZSIgZmFtaWx5PSJBcmlhbCIgc2l6ZT0iMTNweCIgd2VpZ2h0PSI0MDAiIGZvbnQtc3R5bGU9IiIgb3BhY2l0eT0iMSIgeT0iMTI0My41NSIgdHJhbnNmb3JtPSJyb3RhdGUoMCkiPjx0c3BhbiBpZD0iU3ZnanNUc3BhbjEzMDYiIGR5PSIxNiIgeD0iNDU0LjQ5OTk5OTk5OTk5OTkiPjx0c3BhbiBpZD0iU3ZnanNUc3BhbjEzMDciIHN0eWxlPSJ0ZXh0LWRlY29yYXRpb246OyI+5aSx6LSlPC90c3Bhbj48L3RzcGFuPjwvdGV4dD48L2c+PGcgaWQ9IlN2Z2pzRzEzMDgiIHRyYW5zZm9ybT0idHJhbnNsYXRlKDMxMi45OTk5OTk5OTk5OTk5LDExMTEuNSkiPjxwYXRoIGlkPSJTdmdqc1BhdGgxMzA5IiBkPSJNIDAgMEwgMTAwIDBMIDEwMCA3MEwgMCA3MFoiIHN0cm9rZT0icmdiYSg1MCw1MCw1MCwxKSIgc3Ryb2tlLXdpZHRoPSIyIiBmaWxsLW9wYWNpdHk9IjEiIGZpbGw9IiM2ZWQ0NjQiLz48ZyBpZD0iU3ZnanNHMTMxMCI+PHRleHQgaWQ9IlN2Z2pzVGV4dDEzMTEiIGZvbnQtZmFtaWx5PSJBcmlhbCIgdGV4dC1hbmNob3I9Im1pZGRsZSIgZm9udC1zaXplPSIxM3B4IiB3aWR0aD0iODBweCIgZmlsbD0iIzMyMzIzMiIgZm9udC13ZWlnaHQ9IjQwMCIgYWxpZ249Im1pZGRsZSIgYW5jaG9yPSJtaWRkbGUiIGZhbWlseT0iQXJpYWwiIHNpemU9IjEzcHgiIHdlaWdodD0iNDAwIiBmb250LXN0eWxlPSIiIG9wYWNpdHk9IjEiIHk9IjE3LjA1IiB0cmFuc2Zvcm09InJvdGF0ZSgwKSI+PHRzcGFuIGlkPSJTdmdqc1RzcGFuMTMxMiIgZHk9IjE2IiB4PSI1MCI+PHRzcGFuIGlkPSJTdmdqc1RzcGFuMTMxMyIgc3R5bGU9InRleHQtZGVjb3JhdGlvbjo7Ij7mibnph4/lhpnlhaXmlbDmja48L3RzcGFuPjwvdHNwYW4+PHRzcGFuIGlkPSJTdmdqc1RzcGFuMTMxNCIgZHk9IjE2IiB4PSI1MCI+PHRzcGFuIGlkPSJTdmdqc1RzcGFuMTMxNSIgc3R5bGU9InRleHQtZGVjb3JhdGlvbjo7Ij7lupM8L3RzcGFuPjwvdHNwYW4+PC90ZXh0PjwvZz48L2c+PGcgaWQ9IlN2Z2pzRzEzMTYiPjxwYXRoIGlkPSJTdmdqc1BhdGgxMzE3IiBkPSJNMzYyLjk5OTk5OTk5OTk5OTkgMTA3M0wzNjIuOTk5OTk5OTk5OTk5OSAxMDkyLjI1TDM2Mi45OTk5OTk5OTk5OTk5IDEwOTIuMjVMMzYyLjk5OTk5OTk5OTk5OTkgMTExMS41IiBzdHJva2U9IiMzMjMyMzIiIHN0cm9rZS13aWR0aD0iMiIgZmlsbD0ibm9uZSIgbWFya2VyLWVuZD0idXJsKCNTdmdqc01hcmtlcjEzMTgpIi8+PC9nPjxnIGlkPSJTdmdqc0cxMzIwIj48cGF0aCBpZD0iU3ZnanNQYXRoMTMyMSIgZD0iTTM2Mi45OTk5OTk5OTk5OTk5IDExODEuNUwzNjIuOTk5OTk5OTk5OTk5OSAxMjAwTDM2Mi45OTk5OTk5OTk5OTk5IDEyMDBMMzYyLjk5OTk5OTk5OTk5OTkgMTIxOC41IiBzdHJva2U9IiMzMjMyMzIiIHN0cm9rZS13aWR0aD0iMiIgZmlsbD0ibm9uZSIgbWFya2VyLWVuZD0idXJsKCNTdmdqc01hcmtlcjEzMjIpIi8+PC9nPjxnIGlkPSJTdmdqc0cxMzI0IiB0cmFuc2Zvcm09InRyYW5zbGF0ZSg0OTUuOTk5OTk5OTk5OTk5OSwxMjE4LjUpIj48cGF0aCBpZD0iU3ZnanNQYXRoMTMyNSIgZD0iTSAwIDBMIDEwMCAwTCAxMDAgNzBMIDAgNzBaIiBzdHJva2U9InJnYmEoNTAsNTAsNTAsMSkiIHN0cm9rZS13aWR0aD0iMiIgZmlsbC1vcGFjaXR5PSIxIiBmaWxsPSIjNmVkNDY0Ii8+PGcgaWQ9IlN2Z2pzRzEzMjYiPjx0ZXh0IGlkPSJTdmdqc1RleHQxMzI3IiBmb250LWZhbWlseT0iQXJpYWwiIHRleHQtYW5jaG9yPSJtaWRkbGUiIGZvbnQtc2l6ZT0iMTNweCIgd2lkdGg9IjgwcHgiIGZpbGw9IiMzMjMyMzIiIGZvbnQtd2VpZ2h0PSI0MDAiIGFsaWduPSJtaWRkbGUiIGFuY2hvcj0ibWlkZGxlIiBmYW1pbHk9IkFyaWFsIiBzaXplPSIxM3B4IiB3ZWlnaHQ9IjQwMCIgZm9udC1zdHlsZT0iIiBvcGFjaXR5PSIxIiB5PSI5LjA1IiB0cmFuc2Zvcm09InJvdGF0ZSgwKSI+PHRzcGFuIGlkPSJTdmdqc1RzcGFuMTMyOCIgZHk9IjE2IiB4PSI1MCI+PHRzcGFuIGlkPSJTdmdqc1RzcGFuMTMyOSIgc3R5bGU9InRleHQtZGVjb3JhdGlvbjo7Ij7ov5Tlm57nu5Pmnpwv5YaZPC90c3Bhbj48L3RzcGFuPjx0c3BhbiBpZD0iU3ZnanNUc3BhbjEzMzAiIGR5PSIxNiIgeD0iNTAiPjx0c3BhbiBpZD0iU3ZnanNUc3BhbjEzMzEiIHN0eWxlPSJ0ZXh0LWRlY29yYXRpb246OyI+6ZSZ6K+v5pel5b+XL+abtDwvdHNwYW4+PC90c3Bhbj48dHNwYW4gaWQ9IlN2Z2pzVHNwYW4xMzMyIiBkeT0iMTYiIHg9IjUwIj48dHNwYW4gaWQ9IlN2Z2pzVHNwYW4xMzMzIiBzdHlsZT0idGV4dC1kZWNvcmF0aW9uOjsiPuaWsOS7u+WKoeaVsOaNrsKgPC90c3Bhbj48L3RzcGFuPjwvdGV4dD48L2c+PC9nPjxnIGlkPSJTdmdqc0cxMzM0IiB0cmFuc2Zvcm09InRyYW5zbGF0ZSgxMTMsNjQ1Ljc1KSI+PHBhdGggaWQ9IlN2Z2pzUGF0aDEzMzUiIGQ9Ik0gMCAwTCAxMTcgMEwgMTMzIDE2TCAxMzMgOTAuNUwgMCA5MC41TCAwIDBaIiBzdHJva2U9Im5vbmUiIGZpbGwtb3BhY2l0eT0iMSIgZmlsbD0iI2ZmZmZhYSIvPjxwYXRoIGlkPSJTdmdqc1BhdGgxMzM2IiBkPSJNIDExNyAwTCAxMTcgMTZMIDEzMyAxNloiIHN0cm9rZT0ibm9uZSIgZmlsbC1vcGFjaXR5PSIxIiBmaWxsPSIjY2RjZGNkIi8+PHBhdGggaWQ9IlN2Z2pzUGF0aDEzMzciIGQ9Ik0gMCAwTCAxMTcgMEwgMTMzIDE2TCAxMzMgOTAuNUwgMCA5MC41TCAwIDBaIiBzdHJva2U9Im5vbmUiIGZpbGw9Im5vbmUiLz48ZyBpZD0iU3ZnanNHMTMzOCI+PHRleHQgaWQ9IlN2Z2pzVGV4dDEzMzkiIGZvbnQtZmFtaWx5PSJBcmlhbCIgdGV4dC1hbmNob3I9InN0YXJ0IiBmb250LXNpemU9IjEzcHgiIHdpZHRoPSIxMTNweCIgZmlsbD0iIzMyMzIzMiIgZm9udC13ZWlnaHQ9IjQwMCIgYWxpZ249Im1pZGRsZSIgYW5jaG9yPSJzdGFydCIgZmFtaWx5PSJBcmlhbCIgc2l6ZT0iMTNweCIgd2VpZ2h0PSI0MDAiIGZvbnQtc3R5bGU9IiIgb3BhY2l0eT0iMSIgeT0iMy4zIiB0cmFuc2Zvcm09InJvdGF0ZSgwKSI+PHRzcGFuIGlkPSJTdmdqc1RzcGFuMTM0MCIgZHk9IjE2IiB4PSIxMCI+PHRzcGFuIGlkPSJTdmdqc1RzcGFuMTM0MSIgc3R5bGU9InRleHQtZGVjb3JhdGlvbjo7Ij7ljp/lp4vmlbDmja7mlofku7bvvJo8L3RzcGFuPjwvdHNwYW4+PHRzcGFuIGlkPSJTdmdqc1RzcGFuMTM0MiIgZHk9IjE2IiB4PSIxMCI+PHRzcGFuIGlkPSJTdmdqc1RzcGFuMTM0MyIgc3R5bGU9InRleHQtZGVjb3JhdGlvbjo7Ij7mlofku7blkI3vvJo8L3RzcGFuPjwvdHNwYW4+PHRzcGFuIGlkPSJTdmdqc1RzcGFuMTM0NCIgZHk9IjE2IiB4PSIxMCI+PHRzcGFuIGlkPSJTdmdqc1RzcGFuMTM0NSIgc3R5bGU9InRleHQtZGVjb3JhdGlvbjo7Ij5hcHBpZCt0YXNraWQ8L3RzcGFuPjwvdHNwYW4+PHRzcGFuIGlkPSJTdmdqc1RzcGFuMTM0NiIgZHk9IjE2IiB4PSIxMCI+PHRzcGFuIGlkPSJTdmdqc1RzcGFuMTM0NyIgc3R5bGU9InRleHQtZGVjb3JhdGlvbjo7Ij7mlofku7bnsbvlnovvvJpqc29uPC90c3Bhbj48L3RzcGFuPjx0c3BhbiBpZD0iU3ZnanNUc3BhbjEzNDgiIGR5PSIxNiIgeD0iMTAiPjx0c3BhbiBpZD0iU3ZnanNUc3BhbjEzNDkiIHN0eWxlPSJ0ZXh0LWRlY29yYXRpb246OyI+5ZCO57yA5ZCN77yaLmpzb248L3RzcGFuPjwvdHNwYW4+PC90ZXh0PjwvZz48L2c+PGcgaWQ9IlN2Z2pzRzEzNTAiPjxwYXRoIGlkPSJTdmdqc1BhdGgxMzUxIiBkPSJNMjQ2IDY5MUwzMTIuOTk5OTk5OTk5OTk5OSA2OTEiIHN0cm9rZS1kYXNoYXJyYXk9IjMsMyIgc3Ryb2tlPSIjMzIzMjMyIiBzdHJva2Utd2lkdGg9IjIiIGZpbGw9Im5vbmUiLz48L2c+PGcgaWQ9IlN2Z2pzRzEzNTIiIHRyYW5zZm9ybT0idHJhbnNsYXRlKDQ5NS45OTk5OTk5OTk5OTk5LDg4NS41KSI+PHBhdGggaWQ9IlN2Z2pzUGF0aDEzNTMiIGQ9Ik0gMCAwTCAxMDAgMEwgMTAwIDcwTCAwIDcwWiIgc3Ryb2tlPSJyZ2JhKDUwLDUwLDUwLDEpIiBzdHJva2Utd2lkdGg9IjIiIGZpbGwtb3BhY2l0eT0iMSIgZmlsbD0iIzZlZDQ2NCIvPjxnIGlkPSJTdmdqc0cxMzU0Ij48dGV4dCBpZD0iU3ZnanNUZXh0MTM1NSIgZm9udC1mYW1pbHk9IkFyaWFsIiB0ZXh0LWFuY2hvcj0ibWlkZGxlIiBmb250LXNpemU9IjEzcHgiIHdpZHRoPSI4MHB4IiBmaWxsPSIjMzIzMjMyIiBmb250LXdlaWdodD0iNDAwIiBhbGlnbj0ibWlkZGxlIiBhbmNob3I9Im1pZGRsZSIgZmFtaWx5PSJBcmlhbCIgc2l6ZT0iMTNweCIgd2VpZ2h0PSI0MDAiIGZvbnQtc3R5bGU9IiIgb3BhY2l0eT0iMSIgeT0iOS4wNSIgdHJhbnNmb3JtPSJyb3RhdGUoMCkiPjx0c3BhbiBpZD0iU3ZnanNUc3BhbjEzNTYiIGR5PSIxNiIgeD0iNTAiPjx0c3BhbiBpZD0iU3ZnanNUc3BhbjEzNTciIHN0eWxlPSJ0ZXh0LWRlY29yYXRpb246OyI+6L+U5Zue57uT5p6cL+WGmTwvdHNwYW4+PC90c3Bhbj48dHNwYW4gaWQ9IlN2Z2pzVHNwYW4xMzU4IiBkeT0iMTYiIHg9IjUwIj48dHNwYW4gaWQ9IlN2Z2pzVHNwYW4xMzU5IiBzdHlsZT0idGV4dC1kZWNvcmF0aW9uOjsiPumUmeivr+aXpeW/ly/mm7Q8L3RzcGFuPjwvdHNwYW4+PHRzcGFuIGlkPSJTdmdqc1RzcGFuMTM2MCIgZHk9IjE2IiB4PSI1MCI+PHRzcGFuIGlkPSJTdmdqc1RzcGFuMTM2MSIgc3R5bGU9InRleHQtZGVjb3JhdGlvbjo7Ij7mlrDku7vliqHmlbDmja7CoDwvdHNwYW4+PC90c3Bhbj48L3RleHQ+PC9nPjwvZz48ZyBpZD0iU3ZnanNHMTM2MiIgdHJhbnNmb3JtPSJ0cmFuc2xhdGUoNzEuMDAwMDAwMDAwMDAwMTEsMTEwMy4xMjUpIj48cGF0aCBpZD0iU3ZnanNQYXRoMTM2MyIgZD0iTSAwIDBMIDE2MS45OTk5OTk5OTk5OTk5IDBMIDE3Ny45OTk5OTk5OTk5OTk5IDE2TCAxNzcuOTk5OTk5OTk5OTk5OSAxNTMuMzc1TCAwIDE1My4zNzVMIDAgMFoiIHN0cm9rZT0ibm9uZSIgZmlsbC1vcGFjaXR5PSIxIiBmaWxsPSIjZmZmZmFhIi8+PHBhdGggaWQ9IlN2Z2pzUGF0aDEzNjQiIGQ9Ik0gMTYxLjk5OTk5OTk5OTk5OTkgMEwgMTYxLjk5OTk5OTk5OTk5OTkgMTZMIDE3Ny45OTk5OTk5OTk5OTk5IDE2WiIgc3Ryb2tlPSJub25lIiBmaWxsLW9wYWNpdHk9IjEiIGZpbGw9IiNjZGNkY2QiLz48cGF0aCBpZD0iU3ZnanNQYXRoMTM2NSIgZD0iTSAwIDBMIDE2MS45OTk5OTk5OTk5OTk5IDBMIDE3Ny45OTk5OTk5OTk5OTk5IDE2TCAxNzcuOTk5OTk5OTk5OTk5OSAxNTMuMzc1TCAwIDE1My4zNzVMIDAgMFoiIHN0cm9rZT0ibm9uZSIgZmlsbD0ibm9uZSIvPjxnIGlkPSJTdmdqc0cxMzY2Ij48dGV4dCBpZD0iU3ZnanNUZXh0MTM2NyIgZm9udC1mYW1pbHk9IkFyaWFsIiB0ZXh0LWFuY2hvcj0ic3RhcnQiIGZvbnQtc2l6ZT0iMTNweCIgd2lkdGg9IjE1OHB4IiBmaWxsPSIjMzIzMjMyIiBmb250LXdlaWdodD0iNDAwIiBhbGlnbj0ibWlkZGxlIiBhbmNob3I9InN0YXJ0IiBmYW1pbHk9IkFyaWFsIiBzaXplPSIxM3B4IiB3ZWlnaHQ9IjQwMCIgZm9udC1zdHlsZT0iIiBvcGFjaXR5PSIxIiB5PSIxOC43Mzc1IiB0cmFuc2Zvcm09InJvdGF0ZSgwKSI+PHRzcGFuIGlkPSJTdmdqc1RzcGFuMTM2OCIgZHk9IjE2IiB4PSIxMCI+PHRzcGFuIGlkPSJTdmdqc1RzcGFuMTM2OSIgc3R5bGU9InRleHQtZGVjb3JhdGlvbjo7Ij7ov4fnqIvmlbDmja7lhpnlupPvvIjov5nph4zpnIDosIPnlKg8L3RzcGFuPjwvdHNwYW4+PHRzcGFuIGlkPSJTdmdqc1RzcGFuMTM3MCIgZHk9IjE2IiB4PSIxMCI+PHRzcGFuIGlkPSJTdmdqc1RzcGFuMTM3MSIgc3R5bGU9InRleHQtZGVjb3JhdGlvbjo7Ij7lrZjlgqjov4fnqIvvvIzlrZjlgqjov4fnqIvpl67lkJXmiJA8L3RzcGFuPjwvdHNwYW4+PHRzcGFuIGlkPSJTdmdqc1RzcGFuMTM3MiIgZHk9IjE2IiB4PSIxMCI+PHRzcGFuIGlkPSJTdmdqc1RzcGFuMTM3MyIgc3R5bGU9InRleHQtZGVjb3JhdGlvbjo7Ij7lhpvku5bkuYvliY3lhpnkuobkuIDkuKrvvIzlpoLmnpzop4k8L3RzcGFuPjwvdHNwYW4+PHRzcGFuIGlkPSJTdmdqc1RzcGFuMTM3NCIgZHk9IjE2IiB4PSIxMCI+PHRzcGFuIGlkPSJTdmdqc1RzcGFuMTM3NSIgc3R5bGU9InRleHQtZGVjb3JhdGlvbjo7Ij7lvpfkuI3lkIjnkIblj6/ku6Xoh6rlt7Hph43lhpnkuIA8L3RzcGFuPjwvdHNwYW4+PHRzcGFuIGlkPSJTdmdqc1RzcGFuMTM3NiIgZHk9IjE2IiB4PSIxMCI+PHRzcGFuIGlkPSJTdmdqc1RzcGFuMTM3NyIgc3R5bGU9InRleHQtZGVjb3JhdGlvbjo7Ij7kuKrvvIzosIPnlKg8L3RzcGFuPjwvdHNwYW4+PHRzcGFuIGlkPSJTdmdqc1RzcGFuMTM3OCIgZHk9IjE2IiB4PSIxMCI+PHRzcGFuIGlkPSJTdmdqc1RzcGFuMTM3OSIgc3R5bGU9InRleHQtZGVjb3JhdGlvbjo7Ij5EYWxDb250ZXh0LlJ1blNxbFRleHTmlrk8L3RzcGFuPjwvdHNwYW4+PHRzcGFuIGlkPSJTdmdqc1RzcGFuMTM4MCIgZHk9IjE2IiB4PSIxMCI+PHRzcGFuIGlkPSJTdmdqc1RzcGFuMTM4MSIgc3R5bGU9InRleHQtZGVjb3JhdGlvbjo7Ij7ms5Xov5vooYzmibnph4/mk43kvZzvvIk8L3RzcGFuPjwvdHNwYW4+PC90ZXh0PjwvZz48L2c+PGcgaWQ9IlN2Z2pzRzEzODIiPjxwYXRoIGlkPSJTdmdqc1BhdGgxMzgzIiBkPSJNNDEyLjk5OTk5OTk5OTk5OTkgMzY1TDczMS45OTk5OTk5OTk5OTk5IDMzNC41MDM1MjExMjY3NjA2IiBzdHJva2UtZGFzaGFycmF5PSIzLDMiIHN0cm9rZT0iIzMyMzIzMiIgc3Ryb2tlLXdpZHRoPSIyIiBmaWxsPSJub25lIi8+PC9nPjxnIGlkPSJTdmdqc0cxMzg0Ij48cGF0aCBpZD0iU3ZnanNQYXRoMTM4NSIgZD0iTTU5Mi45OTk5OTk5OTk5OTk5IDQ3Nkw3NDUuNDk5OTk5OTk5OTk5OSA3MDYuNSIgc3Ryb2tlLWRhc2hhcnJheT0iMywzIiBzdHJva2U9IiMzMjMyMzIiIHN0cm9rZS13aWR0aD0iMiIgZmlsbD0ibm9uZSIvPjwvZz48ZyBpZD0iU3ZnanNHMTM4NiIgdHJhbnNmb3JtPSJ0cmFuc2xhdGUoMjUsMTMxOC41KSI+PHBhdGggaWQ9IlN2Z2pzUGF0aDEzODciIGQ9Ik0gMCAwTCAyMzguMDAwMDAwMDAwMDAwMDYgMEwgMjU0LjAwMDAwMDAwMDAwMDA2IDE2TCAyNTQuMDAwMDAwMDAwMDAwMDYgMTI4TCAwIDEyOEwgMCAwWiIgc3Ryb2tlPSJub25lIiBmaWxsLW9wYWNpdHk9IjEiIGZpbGw9IiNmZmZmYWEiLz48cGF0aCBpZD0iU3ZnanNQYXRoMTM4OCIgZD0iTSAyMzguMDAwMDAwMDAwMDAwMDYgMEwgMjM4LjAwMDAwMDAwMDAwMDA2IDE2TCAyNTQuMDAwMDAwMDAwMDAwMDYgMTZaIiBzdHJva2U9Im5vbmUiIGZpbGwtb3BhY2l0eT0iMSIgZmlsbD0iI2NkY2RjZCIvPjxwYXRoIGlkPSJTdmdqc1BhdGgxMzg5IiBkPSJNIDAgMEwgMjM4LjAwMDAwMDAwMDAwMDA2IDBMIDI1NC4wMDAwMDAwMDAwMDAwNiAxNkwgMjU0LjAwMDAwMDAwMDAwMDA2IDEyOEwgMCAxMjhMIDAgMFoiIHN0cm9rZT0ibm9uZSIgZmlsbD0ibm9uZSIvPjxnIGlkPSJTdmdqc0cxMzkwIj48dGV4dCBpZD0iU3ZnanNUZXh0MTM5MSIgZm9udC1mYW1pbHk9IkFyaWFsIiB0ZXh0LWFuY2hvcj0ic3RhcnQiIGZvbnQtc2l6ZT0iMTNweCIgd2lkdGg9IjIzNXB4IiBmaWxsPSIjMzIzMjMyIiBmb250LXdlaWdodD0iNDAwIiBhbGlnbj0ibWlkZGxlIiBhbmNob3I9InN0YXJ0IiBmYW1pbHk9IkFyaWFsIiBzaXplPSIxM3B4IiB3ZWlnaHQ9IjQwMCIgZm9udC1zdHlsZT0iIiBvcGFjaXR5PSIxIiB5PSIzMC4wNSIgdHJhbnNmb3JtPSJyb3RhdGUoMCkiPjx0c3BhbiBpZD0iU3ZnanNUc3BhbjEzOTIiIGR5PSIxNiIgeD0iMTAiPjx0c3BhbiBpZD0iU3ZnanNUc3BhbjEzOTMiIHN0eWxlPSJ0ZXh0LWRlY29yYXRpb246OyI+RGFsQ29udGV4dC5SdW5TcWxUZXh0KCJhZGRQZXJzb24iLCA8L3RzcGFuPjwvdHNwYW4+PHRzcGFuIGlkPSJTdmdqc1RzcGFuMTM5NCIgZHk9IjE2IiB4PSIxMCI+PHRzcGFuIGlkPSJTdmdqc1RzcGFuMTM5NSIgc3R5bGU9InRleHQtZGVjb3JhdGlvbjo7Ij5QZXJzb25MaXN0LCBDb25uZWN0aW9uS2luZC5Xcml0ZXIsIDwvdHNwYW4+PC90c3Bhbj48dHNwYW4gaWQ9IlN2Z2pzVHNwYW4xMzk2IiBkeT0iMTYiIHg9IjEwIj48dHNwYW4gaWQ9IlN2Z2pzVHNwYW4xMzk3IiBzdHlsZT0idGV4dC1kZWNvcmF0aW9uOjsiPkNvbW1hbmRUeXBlLlN0b3JlZFByb2NlZHVyZWlzQmF0Y2g8L3RzcGFuPjwvdHNwYW4+PHRzcGFuIGlkPSJTdmdqc1RzcGFuMTM5OCIgZHk9IjE2IiB4PSIxMCI+PHRzcGFuIGlkPSJTdmdqc1RzcGFuMTM5OSIgc3R5bGU9InRleHQtZGVjb3JhdGlvbjo7Ij46IHRydWUpOzwvdHNwYW4+PC90c3Bhbj48L3RleHQ+PC9nPjwvZz48ZyBpZD0iU3ZnanNHMTQwMCI+PHBhdGggaWQ9IlN2Z2pzUGF0aDE0MDEiIGQ9Ik0xNjAuMDAwMDAwMDAwMDAwMDYgMTI1Ni41TDE1Mi4wMDAwMDAwMDAwMDAwMyAxMzE4LjUiIHN0cm9rZT0iIzMyMzIzMiIgc3Ryb2tlLXdpZHRoPSIyIiBmaWxsPSJub25lIiBtYXJrZXItZW5kPSJ1cmwoI1N2Z2pzTWFya2VyMTQwMikiLz48cmVjdCBpZD0iU3ZnanNSZWN0MTQwNCIgd2lkdGg9IjE2MCIgaGVpZ2h0PSIxNiIgeD0iNzYuMDAwMDAwMDAwMDAwMDYiIHk9IjEyNzkuNSIgZmlsbD0iI2ZmZmZmZiIvPjx0ZXh0IGlkPSJTdmdqc1RleHQxNDA1IiBmb250LWZhbWlseT0iQXJpYWwiIHRleHQtYW5jaG9yPSJtaWRkbGUiIGZvbnQtc2l6ZT0iMTNweCIgd2lkdGg9IjE2MHB4IiBmaWxsPSIjMzIzMjMyIiBmb250LXdlaWdodD0iNDAwIiBhbGlnbj0idG9wIiBhbmNob3I9Im1pZGRsZSIgZmFtaWx5PSJBcmlhbCIgc2l6ZT0iMTNweCIgd2VpZ2h0PSI0MDAiIGZvbnQtc3R5bGU9IiIgb3BhY2l0eT0iMSIgeT0iMTI3Ny41NSIgdHJhbnNmb3JtPSJyb3RhdGUoMCkiPjx0c3BhbiBpZD0iU3ZnanNUc3BhbjE0MDYiIGR5PSIxNiIgeD0iMTU2LjAwMDAwMDAwMDAwMDA2Ij48dHNwYW4gaWQ9IlN2Z2pzVHNwYW4xNDA3IiBzdHlsZT0idGV4dC1kZWNvcmF0aW9uOjsiPkRhbENvbnRleHQuUnVuU3FsVGV4dOekuuS+izwvdHNwYW4+PC90c3Bhbj48L3RleHQ+PC9nPjxnIGlkPSJTdmdqc0cxNDA4Ij48cGF0aCBpZD0iU3ZnanNQYXRoMTQwOSIgZD0iTTI0OSAxMTc5LjgxMjVMMzEyLjk5OTk5OTk5OTk5OTkgMTE0Ni41IiBzdHJva2UtZGFzaGFycmF5PSIzLDMiIHN0cm9rZT0iIzMyMzIzMiIgc3Ryb2tlLXdpZHRoPSIyIiBmaWxsPSJub25lIi8+PC9nPjxnIGlkPSJTdmdqc0cxNDEwIiB0cmFuc2Zvcm09InRyYW5zbGF0ZSg3MzEuOTk5OTk5OTk5OTk5OSw0OTgpIj48cGF0aCBpZD0iU3ZnanNQYXRoMTQxMSIgZD0iTSAwIDRRIDAgMCA0IDBMIDI1MyAwUSAyNTcgMCAyNTcgNEwgMjU3IDEwNlEgMjU3IDExMCAyNTMgMTEwTCA0IDExMFEgMCAxMTAgMCAxMDZaIiBzdHJva2U9InJnYmEoNTAsNTAsNTAsMSkiIHN0cm9rZS13aWR0aD0iMiIgZmlsbC1vcGFjaXR5PSIxIiBmaWxsPSIjODBmZjAwIi8+PHBhdGggaWQ9IlN2Z2pzUGF0aDE0MTIiIGQ9Ik0gMCAzMEwgMjU3IDMwIiBzdHJva2U9InJnYmEoNTAsNTAsNTAsMSkiIHN0cm9rZS13aWR0aD0iMiIgZmlsbD0ibm9uZSIvPjxwYXRoIGlkPSJTdmdqc1BhdGgxNDEzIiBkPSJNIDAgMEwgMjU3IDBMIDI1NyAxMTBMIDAgMTEwWiIgc3Ryb2tlPSJub25lIiBmaWxsPSJub25lIi8+PGcgaWQ9IlN2Z2pzRzE0MTQiPjx0ZXh0IGlkPSJTdmdqc1RleHQxNDE1IiBmb250LWZhbWlseT0iQXJpYWwiIHRleHQtYW5jaG9yPSJtaWRkbGUiIGZvbnQtc2l6ZT0iMTNweCIgd2lkdGg9IjIzN3B4IiBmaWxsPSIjMzIzMjMyIiBmb250LXdlaWdodD0iNzAwIiBhbGlnbj0ibWlkZGxlIiBhbmNob3I9Im1pZGRsZSIgZmFtaWx5PSJBcmlhbCIgc2l6ZT0iMTNweCIgd2VpZ2h0PSI3MDAiIGZvbnQtc3R5bGU9IiIgb3BhY2l0eT0iMSIgeT0iNS4wNSIgdHJhbnNmb3JtPSJyb3RhdGUoMCkiPjx0c3BhbiBpZD0iU3ZnanNUc3BhbjE0MTYiIGR5PSIxNiIgeD0iMTI4LjUiPjx0c3BhbiBpZD0iU3ZnanNUc3BhbjE0MTciIHN0eWxlPSJ0ZXh0LWRlY29yYXRpb246OyI+5a+85YWl5Lu75Yqh5aSx6LSl5pWw5o2u5piO57uG6KGoPC90c3Bhbj48L3RzcGFuPjwvdGV4dD48L2c+PGcgaWQ9IlN2Z2pzRzE0MTgiPjx0ZXh0IGlkPSJTdmdqc1RleHQxNDE5IiBmb250LWZhbWlseT0iQXJpYWwiIHRleHQtYW5jaG9yPSJzdGFydCIgZm9udC1zaXplPSIxM3B4IiB3aWR0aD0iMjM3cHgiIGZpbGw9IiMzMjMyMzIiIGZvbnQtd2VpZ2h0PSI0MDAiIGFsaWduPSJtaWRkbGUiIGFuY2hvcj0ic3RhcnQiIGZhbWlseT0iQXJpYWwiIHNpemU9IjEzcHgiIHdlaWdodD0iNDAwIiBmb250LXN0eWxlPSIiIG9wYWNpdHk9IjEiIHk9IjI4LjA1IiB0cmFuc2Zvcm09InJvdGF0ZSgwKSI+PHRzcGFuIGlkPSJTdmdqc1RzcGFuMTQyMCIgZHk9IjE2IiB4PSIxMCI+PHRzcGFuIGlkPSJTdmdqc1RzcGFuMTQyMSIgc3R5bGU9InRleHQtZGVjb3JhdGlvbjo7Ij5UYXNrSUTvvIhHVUlE77yM5Lu75YqhSUTvvIk8L3RzcGFuPjwvdHNwYW4+PHRzcGFuIGlkPSJTdmdqc1RzcGFuMTQyMiIgZHk9IjE2IiB4PSIxMCI+PHRzcGFuIGlkPSJTdmdqc1RzcGFuMTQyMyIgc3R5bGU9InRleHQtZGVjb3JhdGlvbjo7Ij5QaG9uZU51be+8iOaJi+acuuWPt+egge+8iTwvdHNwYW4+PC90c3Bhbj48dHNwYW4gaWQ9IlN2Z2pzVHNwYW4xNDI0IiBkeT0iMTYiIHg9IjEwIj48dHNwYW4gaWQ9IlN2Z2pzVHNwYW4xNDI1IiBzdHlsZT0idGV4dC1kZWNvcmF0aW9uOjsiPkl0ZW0g77yI6L+H56iL5pWw5o2u77yJPC90c3Bhbj48L3RzcGFuPjx0c3BhbiBpZD0iU3ZnanNUc3BhbjE0MjYiIGR5PSIxNiIgeD0iMTAiPjx0c3BhbiBpZD0iU3ZnanNUc3BhbjE0MjciIHN0eWxlPSJ0ZXh0LWRlY29yYXRpb246OyI+RXJyb3JUZXh0IO+8iHN0cmluZ++8jOmUmeivr+WOn+WboO+8iTwvdHNwYW4+PC90c3Bhbj48dHNwYW4gaWQ9IlN2Z2pzVHNwYW4xNDI4IiBkeT0iMTYiIHg9IjEwIj48dHNwYW4gaWQ9IlN2Z2pzVHNwYW4xNDI5IiBzdHlsZT0idGV4dC1kZWNvcmF0aW9uOjsiPkNyZWF0ZVRpbWUgKERhdGVUaW1l77yM5Yib5bu65pe26Ze077yJPC90c3Bhbj48L3RzcGFuPjwvdGV4dD48L2c+PC9nPjxnIGlkPSJTdmdqc0cxNDMwIj48cGF0aCBpZD0iU3ZnanNQYXRoMTQzMSIgZD0iTTg2MC40OTk5OTk5OTk5OTk5IDQyOC41TDg2MC40OTk5OTk5OTk5OTk5IDQ5OCIgc3Ryb2tlPSIjMzIzMjMyIiBzdHJva2Utd2lkdGg9IjIiIGZpbGw9Im5vbmUiLz48L2c+PGcgaWQ9IlN2Z2pzRzE0MzIiPjxwYXRoIGlkPSJTdmdqc1BhdGgxNDMzIiBkPSJNNDgyIDgyLjAwMDAwMDAwMDAwMDA2TDYzMi45OTk5OTk5OTk5OTk5IDExMS4wMDAwMDAwMDAwMDAwNiIgc3Ryb2tlLWRhc2hhcnJheT0iMywzIiBzdHJva2U9IiMzMjMyMzIiIHN0cm9rZS13aWR0aD0iMiIgZmlsbD0ibm9uZSIvPjwvZz48ZyBpZD0iU3ZnanNHMTQzNCIgdHJhbnNmb3JtPSJ0cmFuc2xhdGUoMTA2MSw1MTcuNSkiPjxwYXRoIGlkPSJTdmdqc1BhdGgxNDM1IiBkPSJNIDAgMEwgMTUwIDBMIDE2NiAxNkwgMTY2IDEwNC41TCAwIDEwNC41TCAwIDBaIiBzdHJva2U9Im5vbmUiIGZpbGwtb3BhY2l0eT0iMSIgZmlsbD0iI2ZmZmZhYSIvPjxwYXRoIGlkPSJTdmdqc1BhdGgxNDM2IiBkPSJNIDE1MCAwTCAxNTAgMTZMIDE2NiAxNloiIHN0cm9rZT0ibm9uZSIgZmlsbC1vcGFjaXR5PSIxIiBmaWxsPSIjY2RjZGNkIi8+PHBhdGggaWQ9IlN2Z2pzUGF0aDE0MzciIGQ9Ik0gMCAwTCAxNTAgMEwgMTY2IDE2TCAxNjYgMTA0LjVMIDAgMTA0LjVMIDAgMFoiIHN0cm9rZT0ibm9uZSIgZmlsbD0ibm9uZSIvPjxnIGlkPSJTdmdqc0cxNDM4Ij48dGV4dCBpZD0iU3ZnanNUZXh0MTQzOSIgZm9udC1mYW1pbHk9IkFyaWFsIiB0ZXh0LWFuY2hvcj0ic3RhcnQiIGZvbnQtc2l6ZT0iMTNweCIgd2lkdGg9IjE0NnB4IiBmaWxsPSIjMzIzMjMyIiBmb250LXdlaWdodD0iNDAwIiBhbGlnbj0ibWlkZGxlIiBhbmNob3I9InN0YXJ0IiBmYW1pbHk9IkFyaWFsIiBzaXplPSIxM3B4IiB3ZWlnaHQ9IjQwMCIgZm9udC1zdHlsZT0iIiBvcGFjaXR5PSIxIiB5PSIxMC4zIiB0cmFuc2Zvcm09InJvdGF0ZSgwKSI+PHRzcGFuIGlkPSJTdmdqc1RzcGFuMTQ0MCIgZHk9IjE2IiB4PSIxMCI+PHRzcGFuIGlkPSJTdmdqc1RzcGFuMTQ0MSIgc3R5bGU9InRleHQtZGVjb3JhdGlvbjo7Ij7lr7zlhaXku7vliqHlpLHotKXmlbDmja7mmI7nu4bkvaA8L3RzcGFuPjwvdHNwYW4+PHRzcGFuIGlkPSJTdmdqc1RzcGFuMTQ0MiIgZHk9IjE2IiB4PSIxMCI+PHRzcGFuIGlkPSJTdmdqc1RzcGFuMTQ0MyIgc3R5bGU9InRleHQtZGVjb3JhdGlvbjo7Ij7nnIvmmK/lrZjooajov5jmmK/lrZjmiJBqc29u5paHPC90c3Bhbj48L3RzcGFuPjx0c3BhbiBpZD0iU3ZnanNUc3BhbjE0NDQiIGR5PSIxNiIgeD0iMTAiPjx0c3BhbiBpZD0iU3ZnanNUc3BhbjE0NDUiIHN0eWxlPSJ0ZXh0LWRlY29yYXRpb246OyI+5Lu277yM5a2Y6KGo5pWw5o2u6YeP5Lya5oWi5oWi56evPC90c3Bhbj48L3RzcGFuPjx0c3BhbiBpZD0iU3ZnanNUc3BhbjE0NDYiIGR5PSIxNiIgeD0iMTAiPjx0c3BhbiBpZD0iU3ZnanNUc3BhbjE0NDciIHN0eWxlPSJ0ZXh0LWRlY29yYXRpb246OyI+57Sv5aSq5aSn77yM5Lya6ZyA6KaB5a6a5pe25riFPC90c3Bhbj48L3RzcGFuPjx0c3BhbiBpZD0iU3ZnanNUc3BhbjE0NDgiIGR5PSIxNiIgeD0iMTAiPjx0c3BhbiBpZD0iU3ZnanNUc3BhbjE0NDkiIHN0eWxlPSJ0ZXh0LWRlY29yYXRpb246OyI+55CG77yMPC90c3Bhbj48L3RzcGFuPjwvdGV4dD48L2c+PC9nPjxnIGlkPSJTdmdqc0cxNDUwIj48cGF0aCBpZD0iU3ZnanNQYXRoMTQ1MSIgZD0iTTk4OC45OTk5OTk5OTk5OTk5IDU1M0wxMDYxIDU2OS43NSIgc3Ryb2tlLWRhc2hhcnJheT0iMywzIiBzdHJva2U9IiMzMjMyMzIiIHN0cm9rZS13aWR0aD0iMiIgZmlsbD0ibm9uZSIvPjwvZz48L3N2Zz4=;" vertex="1" parent="1">
          <mxGeometry width="646" height="760" as="geometry" />
        </mxCell>
      </root>
    </mxGraphModel>
  </diagram>
</mxfile>
